<?xml version="1.0" encoding="UTF-8"?>
<svg xmlns="http://www.w3.org/2000/svg" viewBox="0 0 642.99 576.64">
  <defs>
    <style>
      .d {
        fill: #f9f9f9;
      }

      .e {
        fill: #ffc850;
      }
    </style>
  </defs>
  <g id="a" data-name="Layer 4 copy 3">
    <circle class="e" cx="314.19" cy="293.14" r="247.5"/>
  </g>
  <g id="b" data-name="Layer 15">
    <g>
      <path d="m184.69,193.64s-1-10,8-10,94.87-1,122.94,20l.06,220s-11,2-18-11c0,0-42-16-108-17,0,0-14-4-16-19v-144.36s0-14.64,11-15.64v-23Z"/>
      <path d="m446.71,193.46s1-10-8-10-94.87-1-122.94,20l-.06,220s11,2,18-11c0,0,42-16,108-17,0,0,14-4,16-19v-144.36s0-14.64-11-15.64v-23Z"/>
    </g>
  </g>
  <g id="c" data-name="Layer 14">
    <path class="d" d="m204.69,203.64v160.47s69,1.53,100,15.53v-159.87s-21-15.13-100-16.13Z"/>
    <path class="d" d="m425.69,203.92v160.47s-69,1.53-100,15.53v-159.87s21-15.13,100-16.13Z"/>
  </g>
</svg>