<?xml version="1.0" encoding="UTF-8"?>
<svg xmlns="http://www.w3.org/2000/svg" viewBox="0 0 1003.58 600">
  <defs>
    <style>
      .d, .e, .f, .g {
        stroke-miterlimit: 10;
      }

      .d, .h {
        fill: #bad2e8;
      }

      .d, .f, .g {
        stroke: #000;
      }

      .d, .g {
        stroke-width: 4px;
      }

      .i {
        fill: #506acc;
      }

      .e {
        fill: none;
        stroke: #bad2e8;
        stroke-width: 18px;
      }

      .f {
        fill: #296642;
        stroke-width: 3px;
      }

      .g {
        fill: #7cbde5;
      }
    </style>
  </defs>
  <g id="a" data-name="Layer 4 copy 9">
    <g>
      <path class="d" d="m314.69,264l-248-4.52c0-.33,0-.65,0-.98,0-135.77,111.73-247.5,247.5-247.5s247.5,111.73,247.5,247.5l-247,5.5Z"/>
      <path class="g" d="m314.64,259.37l247.5-.98c0,.33,0,.65,0,.98,0,135.77-111.73,247.5-247.5,247.5s-247.5-111.73-247.5-247.5h247.5Z"/>
    </g>
  </g>
  <g id="b" data-name="Layer 7 copy 2">
    <g>
      <path class="f" d="m213.69,125s-7,88,59,81c0,0,18-3,25-30,0,0,7-61-84-51Z"/>
      <path class="f" d="m318.69,189s-33-94,96-82c0,0,12.72,104.79-66.64,100.4,0,0-19.36-7.4-29.36-18.4Z"/>
      <path class="f" d="m297.69,176s14.87,18.98,15.94,27.49c0,0,7.21-14.19,7.14-16.34s13.92,9.85,13.92,9.85c0,0-15,20-11,45h-17.51s-2.44-40.62-16.46-48.31l7.97-17.69Z"/>
    </g>
    <path class="i" d="m139.21,341.8c13.31-2.13,26.02-9.12,33.48-20.42,4.19-5.96,6.62-15.85,8.87-22.75,3.01,3.63,9.29,11.84,12.38,15.1,6.88,7.32,15.41,14.13,24.91,17.07,1.66.52,3.51.94,5.24,1.1,0,0,1.29.16,1.29.16.43.07.86.02,1.28.05,5.08.21,10.19-1.19,14.71-3.74,1.37-.63,3.37-2.06,4.67-2.9,0,0,2.25-1.79,2.25-1.79,4.71-3.82,8.76-8.4,12.53-13.15,2.46-3.37,10.96-15.02,13.56-18.59,0,0,10.23,14.29,10.23,14.29,9.21,12.92,24.97,27.98,41.9,21.34.67-.18,1.56-.69,2.2-.98.65-.29,1.61-.75,2.2-1.16,0,0,2.21-1.32,2.21-1.32,0,0,2.19-1.57,2.19-1.57,6.27-4.54,11.54-10.87,16.29-16.95,0,0,13.33-16.76,13.33-16.76,0,0,6.97,18.1,6.97,18.1.04.11.33.64.53,1,1.67,2.99,3.64,5.87,5.75,8.56,27.77,35.26,55.06,5.35,76.92-18.5,0,0,.91,11.9.91,11.9,0,.07.11.35.18.54,4.61,11.26,12.71,21.37,23.57,27.16,3.77,2.09,7.95,3.45,12.33,4.43l-.09,1.4c-18.71-.85-34.62-14.21-42.77-30.5,0,0,1.75.21,1.75.21-4.27,5.43-9.18,10.97-14.23,15.6-12.41,11.35-29,19.19-45.75,12.88-13.49-5.11-23.68-16.28-30.82-28.52,0,0,2.18.14,2.18.14-5.94,8.4-12.94,16.34-21.51,22.31-26.51,18.17-52.23,1.07-67.66-22.38,0,0,2.14.09,2.14.09-5.61,7.56-11.89,14.79-19.58,20.45-11.98,9.12-26.32,12.59-40.67,6.98-13.36-5.3-23.92-15.84-31.79-27.64,0,0,1.86-.14,1.86-.14-5.56,13.6-17.46,24.24-31.62,28.15-4.67,1.33-9.45,2.15-14.37,2.14,0,0,.04-1.4.04-1.4h0Z"/>
    <path class="i" d="m195.24,417.8c15.57-3.96,27.95-18.85,36.93-31.47,0,0,3.54-5.07,3.54-5.07,0,0,9.34,6.28,9.34,6.28.42.5,1.3,1.63,1.76,2.15,20.54,23.12,39.68,25.68,61.86,3.07,5.26-5.29,13.31-15.55,18.24-21.41,2.56,3.2,10.63,14.01,13.27,16.83,10.21,11.01,24.79,23.28,40.2,19.56,14.25-3.59,24.02-18.06,32.85-29.67,0,0,5.48,8.1,5.48,8.1.18.27.53.71.82,1.07,7.42,9.26,15.89,17.69,25.34,24.94,3.4,2.55,6.93,4.93,10.63,7.1,0,0-.45,1.33-.45,1.33-16.43-5.61-30.87-16.05-42.96-28.37,0,0,1.72-.16,1.72-.16-12.43,20.69-31.94,35.94-56.72,25.55-8.45-3.48-15.87-8.98-22.46-15.22-3.27-3.15-6.34-6.42-9.17-10.07l2.2.04c-11.45,14.01-26.64,28.06-45.7,28.79-19.18.53-35.12-13.69-44.74-29.12,0,0,1.77.17,1.77.17-2.87,3.31-5.88,6.5-9.09,9.49-8.08,7.36-17.36,13.98-28.11,16.69-2.17.51-4.32.9-6.68.81,0,0,.11-1.4.11-1.4h0Z"/>
  </g>
  <g id="c" data-name="Layer 8">
    <g>
      <path class="e" d="m251.69,169s48.91,30.99,45,74"/>
      <ellipse class="h" cx="250.69" cy="168.5" rx="9" ry="9.5"/>
    </g>
    <g>
      <path class="e" d="m377.42,165.96s-48.91,30.99-45,74"/>
      <ellipse class="h" cx="378.42" cy="165.46" rx="9" ry="9.5"/>
    </g>
  </g>
</svg>