<?xml version="1.0" encoding="UTF-8"?>
<svg xmlns="http://www.w3.org/2000/svg" viewBox="0 0 1003.58 600">
  <defs>
    <style>
      .d, .e, .f, .g {
        stroke-miterlimit: 10;
      }

      .d, .e, .g {
        stroke: #000;
      }

      .d, .h {
        fill: #bad2e8;
      }

      .d, .g {
        stroke-width: 4px;
      }

      .i {
        fill: #ff9494;
      }

      .e {
        fill: #db0025;
        stroke-width: 3px;
      }

      .f {
        fill: none;
        stroke: #bad2e8;
        stroke-width: 18px;
      }

      .g {
        fill: #916a50;
      }
    </style>
  </defs>
  <g id="a" data-name="Layer 4 copy">
    <g>
      <path class="d" d="m314.69,264l-248-4.52c0-.33,0-.65,0-.98,0-135.77,111.73-247.5,247.5-247.5s247.5,111.73,247.5,247.5l-247,5.5Z"/>
      <path class="g" d="m314.64,259.37l247.5-.98c0,.33,0,.65,0,.98,0,135.77-111.73,247.5-247.5,247.5s-247.5-111.73-247.5-247.5h247.5Z"/>
    </g>
  </g>
  <g id="b" data-name="Layer 7 copy">
    <g>
      <path class="e" d="m213.69,125s-7,88,59,81c0,0,18-3,25-30,0,0,7-61-84-51Z"/>
      <path class="e" d="m318.69,189s-33-94,96-82c0,0,12.72,104.79-66.64,100.4,0,0-19.36-7.4-29.36-18.4Z"/>
      <path class="e" d="m297.69,176s14.87,18.98,15.94,27.49c0,0,7.21-14.19,7.14-16.34s13.92,9.85,13.92,9.85c0,0-15,20-11,45h-17.51s-2.44-40.62-16.46-48.31l7.97-17.69Z"/>
    </g>
    <g>
      <path class="i" d="m206.46,261.68c10.13,15.25,19.92,30.72,29.39,46.39,0,0,1.85,3.04,1.85,3.04-1.77,1.96-6.51,7.24-8.34,9.28-5.42,6.18-10.39,12.88-16.65,18.25-6.26,5.41-13.02,10.4-20.28,14.54-2.47,1.39-5,2.72-7.75,3.83,0,0-.98-1-.98-1,4.65-10.28,11.55-19.3,18.97-27.63,7.32-7.98,16.85-14.31,24.85-21.62,0,0-.98,6.19-.98,6.19-1.85-4.18-3.75-8.33-5.53-12.55-5.43-12.62-10.76-25.27-15.79-38.06,0,0,1.24-.65,1.24-.65h0Z"/>
      <path class="i" d="m228.55,386.79c-5.77-7.61-11.15-15.47-16.12-23.58-2.46-3.99-6.06-7.49-7.1-12.23-1.24-5.09-1.58-9.99-.1-15.42,0,0,1.27-.58,1.27-.58,2.8,1.3,4.9,2.92,6.78,4.64,3.56,3.39,6.51,7.19,7.63,11.98.56,2.32.99,4.7,1.7,6.95,2.85,9.07,5.25,18.29,7.2,27.64,0,0-1.27.58-1.27.58h0Z"/>
    </g>
    <g>
      <path class="i" d="m329.96,262.3c-4.33,11.19-8.81,22.32-13.34,33.43,0,0-.13-3.07-.13-3.07,4.21,6.14,8.8,13.04,12.99,19.24,6.6,10.01,14.65,22.39,21.57,32.13,0,0,1.51,2.19,1.51,2.19l-.94,3.5c-2.54,9.95-6.2,19.5-10.5,28.83-4.39,9.44-9.13,18.62-15.27,27.18,0,0-1.32-.46-1.32-.46.19-5.34.85-10.52,1.67-15.65,2.58-15.21,6.38-30.19,12.56-44.34,0,0,.58,5.69.58,5.69-2.31-4.62-4.56-9.27-6.96-13.83-7.28-13.75-15.39-29.09-22.36-42.91,0,0,.75-1.32.75-1.32,5.9-10.45,11.84-20.87,17.93-31.21,0,0,1.26.61,1.26.61h0Z"/>
      <path class="i" d="m369.65,422.95c-7.5-5.8-14.68-11.93-21.53-18.42-3.39-3.19-7.75-5.6-9.96-9.88-2.49-4.57-4.07-9.19-4.01-14.78,0,0,1.08-.89,1.08-.89,3.03.52,5.46,1.53,7.71,2.68,4.29,2.32,8.11,5.2,10.41,9.51,1.13,2.08,2.15,4.26,3.41,6.23,5.06,7.96,9.71,16.19,13.97,24.65,0,0-1.08.89-1.08.89h0Z"/>
    </g>
    <g>
      <path class="i" d="m429.09,261c2.56,16.01,3.83,32.13,5.6,48.22-1.75,3.56-3.29,7.37-5.26,10.78-5.09,8.15-12.09,15.14-20.66,19.88,0,0-1.18-.76-1.18-.76.2-3.56.9-6.8,1.79-9.92,1.82-6.09,4.24-11.91,7.85-17.08,1.8-2.53,3.94-4.84,5.97-7.22l-.99,3.35c1.27-11.82,2.2-23.65,3.8-35.44.52-3.94,1.04-7.88,1.66-11.81,0,0,1.4,0,1.4,0h0Z"/>
      <path class="i" d="m447.66,330.97c-4.77-2.26-9.31-4.86-13.56-7.87-2.02-1.44-5.05-2.03-6-4.63-1.23-3.12-1.29-6.01-.24-9.75,0,0,1.05-.93,1.05-.93,3.83-.61,6.7-.21,9.66,1.37,2.48,1.24,2.71,4.32,3.9,6.49,1.23,2.23,2.35,4.55,3.38,6.96,1.01,2.42,2.03,4.83,2.86,7.42l-1.05.93h0Z"/>
    </g>
  </g>
  <g id="c" data-name="Layer 8">
    <g>
      <path class="f" d="m251.69,169s48.91,30.99,45,74"/>
      <ellipse class="h" cx="250.69" cy="168.5" rx="9" ry="9.5"/>
    </g>
    <g>
      <path class="f" d="m377.42,165.96s-48.91,30.99-45,74"/>
      <ellipse class="h" cx="378.42" cy="165.46" rx="9" ry="9.5"/>
    </g>
  </g>
</svg>