<svg width="216" height="143" viewBox="0 0 216 143" fill="none" xmlns="http://www.w3.org/2000/svg">
<path d="M62.5 142.5C87.3528 142.5 107.5 139.142 107.5 135C107.5 130.858 87.3528 127.5 62.5 127.5C37.6472 127.5 17.5 130.858 17.5 135C17.5 139.142 37.6472 142.5 62.5 142.5Z" fill="#AFAFAF"/>
<path d="M50 110C50 105.132 56.215 94.6995 59.88 88.9695C61.1025 87.057 63.8975 87.057 65.12 88.9695C68.785 94.6995 75 105.132 75 110C75 116.902 69.4025 122.5 62.5 122.5C55.5975 122.5 50 116.902 50 110Z" fill="#FD3C4F"/>
<path d="M25 110C25 109.564 25.0497 109.085 25.1427 108.568C26.0908 103.304 31.5426 94.1873 34.88 88.9695C36.1025 87.057 38.8975 87.057 40.12 88.9695C43.785 94.6995 50 105.132 50 110C50 116.902 44.4025 122.5 37.5 122.5C30.5975 122.5 25 116.902 25 110Z" fill="#FD3C4F"/>
<path d="M75 110C75 105.132 81.215 94.6995 84.88 88.9695C86.1025 87.057 88.8975 87.057 90.12 88.9695C91.4767 91.0906 93.1827 93.856 94.7936 96.745C97.1456 100.963 99.2946 105.444 99.8573 108.568C99.9503 109.085 100 109.564 100 110C100 116.902 94.4025 122.5 87.5 122.5C80.5975 122.5 75 116.902 75 110Z" fill="#FD3C4F"/>
<path fill-rule="evenodd" clip-rule="evenodd" d="M26.4062 48.75C26.4062 47.4556 27.4556 46.4062 28.75 46.4062H41.25C42.5444 46.4062 43.5938 47.4556 43.5938 48.75C43.5938 50.0444 42.5444 51.0938 41.25 51.0938H28.75C27.4556 51.0938 26.4062 50.0444 26.4062 48.75Z" fill="white"/>
<path d="M103.75 40L57.5 40C57.5 46.9025 51.9025 52.5 45 52.5H30L30 85C30 91.8825 24.4375 97.4575 17.5625 97.4925C17.525 97.0825 17.5 96.67 17.5 96.25C17.5 101.64 20.6167 106.315 25.1427 108.568C26.0908 103.304 31.5426 94.1873 34.88 88.9695C36.1025 87.057 38.8975 87.057 40.12 88.9695C43.785 94.6995 50 105.132 50 110C50 105.132 56.215 94.6995 59.88 88.9695C61.1025 87.057 63.8975 87.057 65.12 88.9695C68.785 94.6995 75 105.132 75 110C75 105.132 81.215 94.6995 84.88 88.9695C86.1025 87.057 88.8975 87.057 90.12 88.9695C91.4767 91.0906 93.1827 93.856 94.7936 96.745C94.9169 96.5923 95 96.4246 95 96.25V65C95 58.0975 100.598 52.5 107.5 52.5L107.5 43.75C107.5 41.6775 105.823 40 103.75 40Z" fill="#69E3FF"/>
<path d="M107.5 52.5C100.598 52.5 95 58.0975 95 65V96.25C95 96.4246 94.9169 96.5923 94.7936 96.745C97.1456 100.963 99.2946 105.444 99.8573 108.568C104.383 106.315 107.5 101.64 107.5 96.25V75L107.5 62.5V52.5Z" fill="#59C1D9"/>
<path d="M125 68.75C125 65.2975 122.203 62.5 118.75 62.5H107.5L107.5 75H118.75C122.202 75 125 72.2025 125 68.75Z" fill="#69E3FF"/>
<path fill-rule="evenodd" clip-rule="evenodd" d="M28.75 46.4062C27.4556 46.4062 26.4062 47.4556 26.4062 48.75C26.4062 50.0444 27.4556 51.0938 28.75 51.0938H41.25C42.5444 51.0938 43.5938 50.0444 43.5938 48.75C43.5938 47.4556 42.5444 46.4062 41.25 46.4062H28.75Z" fill="white"/>
<path fill-rule="evenodd" clip-rule="evenodd" d="M57.5 40H21.25C19.1775 40 17.5 41.6775 17.5 43.75V62.5L17.5 75V96.25C17.5 96.67 17.525 97.0825 17.5625 97.4925C24.4375 97.4575 30 91.8825 30 85L30 52.5H45C51.9025 52.5 57.5 46.9025 57.5 40ZM26.4062 48.75C26.4062 47.4556 27.4556 46.4062 28.75 46.4062H41.25C42.5444 46.4062 43.5938 47.4556 43.5938 48.75C43.5938 50.0444 42.5444 51.0938 41.25 51.0938H28.75C27.4556 51.0938 26.4062 50.0444 26.4062 48.75Z" fill="#96EBFF"/>
<path d="M6.25 75H17.5L17.5 62.5H6.25C2.7975 62.5 1.50915e-07 65.2975 0 68.75C-1.50912e-07 72.2025 2.7975 75 6.25 75Z" fill="#69E3FF"/>
<path d="M183.109 62.9197L180.091 67.8072C178.008 71.1825 179.054 75.6059 182.429 77.6896C185.805 79.7733 190.228 78.7267 192.312 75.3514L195.329 70.464L195.328 70.4632L189.974 65.4691L183.109 62.9197Z" fill="#37D0EE"/>
<path d="M195.331 70.4649L198.348 65.5774C200.432 62.2022 199.386 57.7788 196.01 55.6951C192.635 53.6114 188.212 54.6579 186.128 58.0332L183.111 62.9207L195.328 70.4632L195.331 70.4649Z" fill="#FD3C4F"/>
<path d="M163.115 37.4482C163.663 39.764 165.984 41.1969 168.3 40.649L175.288 38.9951C174.375 35.135 170.507 32.7472 166.647 33.6605C165.066 34.0345 163.754 34.919 162.792 36.0808L163.115 37.4482Z" fill="#BA71D4"/>
<path d="M169.894 66.0995C170.168 67.2567 171.33 67.9737 172.487 67.6999C173.64 67.4271 174.356 66.2726 174.09 65.1192L174.087 65.1076L171.773 55.3244L171.77 55.3126C171.491 54.1624 170.333 53.4512 169.18 53.724C168.023 53.9978 167.306 55.1592 167.58 56.3164L169.894 66.0995Z" fill="white"/>
<path d="M162.454 34.653L163.115 37.4482L162.792 36.0808C163.754 34.919 165.066 34.0345 166.647 33.6605C170.507 32.7472 174.375 35.135 175.288 38.9951L196.252 34.0357C198.567 33.4878 200 31.1668 199.452 28.851L198.791 26.0558C198.243 23.74 195.922 22.3071 193.606 22.855L165.654 29.4683C163.339 30.0162 161.906 32.3372 162.454 34.653Z" fill="#A11AC9"/>
<path fill-rule="evenodd" clip-rule="evenodd" d="M196.252 34.0365L175.288 38.9964L176.941 45.983C177.073 46.5371 177.136 47.0914 177.136 47.637C177.136 48.0707 177.097 48.4988 177.021 48.9172C176.527 51.6399 174.473 53.9463 171.607 54.6243L171.77 55.3126L171.773 55.3244L174.087 65.1076L174.09 65.1192L175.905 72.7929C176.819 76.6531 174.431 80.5209 170.571 81.4342L164.619 56.2783L173.216 92.6156C174.129 96.4743 177.999 98.8632 181.857 97.9502L190.243 95.9664C189.33 92.1063 191.719 88.2381 195.578 87.3252L208.156 84.3492L204.849 70.3733C203.94 66.53 206.306 62.6835 210.136 61.7479C210.276 62.2018 210.404 62.6615 210.514 63.1297L215.144 82.6957L206.547 46.3584C205.634 42.4997 201.764 40.1108 197.905 41.0238L196.252 34.0365ZM180.091 67.8072L183.109 62.9197L183.111 62.9207L186.128 58.0332C188.212 54.6579 192.635 53.6114 196.01 55.6951C199.386 57.7788 200.432 62.2022 198.348 65.5774L195.331 70.4649L195.328 70.4632L195.329 70.464L192.312 75.3514C190.228 78.7267 185.805 79.7733 182.429 77.6896C179.054 75.6059 178.008 71.1825 180.091 67.8072Z" fill="#FFCE29"/>
<path d="M190.243 95.9664L209.809 91.337C213.668 90.424 216.057 86.5544 215.144 82.6957L210.514 63.1297C210.404 62.6615 210.276 62.2018 210.136 61.7479C206.306 62.6835 203.94 66.53 204.849 70.3733L208.156 84.3492L195.578 87.3252C191.719 88.2381 189.33 92.1063 190.243 95.9664Z" fill="#D9AF23"/>
<path fill-rule="evenodd" clip-rule="evenodd" d="M168.3 40.649L175.288 38.9951L175.288 38.9964L168.3 40.649Z" fill="white"/>
<path d="M169.954 47.637C166.095 48.55 163.706 52.4196 164.619 56.2783L170.571 81.4342C174.431 80.5209 176.819 76.6531 175.905 72.7929L174.09 65.1192C174.356 66.2726 173.64 67.4271 172.487 67.6999C171.33 67.9737 170.168 67.2567 169.894 66.0995L167.58 56.3164C167.306 55.1592 168.023 53.9978 169.18 53.724C170.333 53.4512 171.491 54.1624 171.77 55.3126L171.607 54.6243C174.473 53.9463 176.527 51.6399 177.021 48.9172C177.097 48.4988 177.136 48.0707 177.136 47.637C177.136 47.0914 177.073 46.5371 176.941 45.983L175.288 38.9964L168.3 40.649L169.954 47.637Z" fill="#FFDD69"/>
<path d="M30 32.5C17.5736 32.5 7.5 25.2246 7.5 16.25C7.5 7.27537 17.5736 -5.43176e-07 30 0C39.3598 4.09131e-07 47.3848 4.12762 50.7756 10L111.25 10C114.703 10 117.5 12.7975 117.5 16.25C117.5 19.7025 114.703 22.5 111.25 22.5L50.7756 22.5C47.3848 28.3724 39.3598 32.5 30 32.5Z" fill="#A11AC9"/>
</svg>
