<svg width="201" height="288" viewBox="0 0 201 288" fill="none" xmlns="http://www.w3.org/2000/svg">
<path d="M21.2871 95.6367C24.329 105.582 30.717 126.981 31.9337 133.016" stroke="#C3B067" stroke-width="4"/>
<path d="M29.2144 94.2646C30.7526 104.64 33.9073 126.937 34.2202 133.116" stroke="#C3B067" stroke-width="4"/>
<path d="M62.6543 52.4268C64.9864 76.3178 69.2856 125.197 67.8255 129.587" stroke="#C3B067" stroke-width="4"/>
<path d="M53.833 55.1699C56.1651 79.061 60.4643 127.94 59.0042 132.33" stroke="#C3B067" stroke-width="4"/>
<path d="M75.9092 54.7885L80.6001 129.543" stroke="#C3B067" stroke-width="4"/>
<path d="M58.7634 59.6463L68.1791 133.955" stroke="#C3B067" stroke-width="4"/>
<path d="M115.279 45.9111L107.37 131.302" stroke="#C3B067" stroke-width="4"/>
<path d="M109.502 74.8262L101.593 130.688" stroke="#C3B067" stroke-width="4"/>
<path d="M86.3836 37.1807L94.2925 128.866" stroke="#C3B067" stroke-width="4"/>
<path d="M83.5238 94.1488L86.1961 130.044" stroke="#C3B067" stroke-width="4"/>
<path d="M132.618 35.9658L126.838 128.558" stroke="#C3B067" stroke-width="4"/>
<path d="M174.446 91.9551L168.744 128.778" stroke="#C3B067" stroke-width="4"/>
<path d="M169.123 66.9326L158.781 130.531" stroke="#C3B067" stroke-width="4"/>
<path d="M147.829 59.0391L141.746 129.473" stroke="#C3B067" stroke-width="4"/>
<path d="M34.1361 92.4337C38.8127 84.469 30.3292 75.6875 23.3195 76.7215C10.1763 78.6602 7.19177 89.1557 10.6371 95.3208C14.0825 101.486 28.2904 102.389 34.1361 92.4337Z" fill="#4A9E41"/>
<path d="M85.8282 98.3019C89.656 89.8979 80.3095 82.0374 73.4442 83.7881C60.5717 87.0707 58.6888 97.8177 62.7535 103.595C66.8182 109.372 81.0436 108.807 85.8282 98.3019Z" fill="#4A9E41"/>
<path d="M169.238 91.6424C168.684 82.4274 156.739 79.8414 151.491 84.593C141.651 93.5022 145.022 103.881 151.321 107.09C157.621 110.3 169.931 103.161 169.238 91.6424Z" fill="#4A9E41"/>
<path d="M121.176 79.4988C120.622 70.2839 108.677 67.6978 103.429 72.4494C93.5889 81.3586 96.9597 91.737 103.259 94.9466C109.559 98.1563 121.869 91.0175 121.176 79.4988Z" fill="#4A9E41"/>
<path d="M67.7555 109.833C71.5832 101.429 62.2367 93.5687 55.3714 95.3194C42.499 98.602 40.616 109.349 44.6807 115.126C48.7454 120.903 62.9708 120.338 67.7555 109.833Z" fill="#4A9E41"/>
<path d="M152.082 114.197C155.91 105.793 146.563 97.933 139.698 99.6837C126.826 102.966 124.943 113.713 129.007 119.49C133.072 125.268 147.297 124.702 152.082 114.197Z" fill="#4A9E41"/>
<path d="M68.7936 64.2999C72.6213 55.8959 63.2748 48.0355 56.4095 49.7862C43.537 53.0688 41.6541 63.8157 45.7188 69.593C49.7835 75.3702 64.0089 74.8049 68.7936 64.2999Z" fill="#4A9E41"/>
<path d="M95.5621 67.9425C99.3899 59.5385 90.0433 51.6781 83.178 53.4288C70.3056 56.7114 68.4227 67.4583 72.4874 73.2355C76.5521 79.0127 90.7775 78.4475 95.5621 67.9425Z" fill="#4A9E41"/>
<path d="M120.942 53.9841C123.394 48.6006 117.407 43.5654 113.009 44.6868C104.763 46.7896 103.557 53.674 106.16 57.3747C108.764 61.0755 117.877 60.7134 120.942 53.9841Z" fill="#4A9E41"/>
<path d="M31.3558 91.8597C31.0052 82.4849 42.8307 78.6931 48.6086 82.9822C59.4422 91.0244 57.0587 101.853 51.0042 105.72C44.9498 109.587 31.7939 103.578 31.3558 91.8597Z" fill="#4A9E41"/>
<path d="M166.607 92.7093C161.09 85.114 168.802 75.3968 175.995 75.7523C189.48 76.419 193.536 86.7407 190.661 93.3156C187.785 99.8905 173.504 102.203 166.607 92.7093Z" fill="#4A9E41"/>
<path d="M118.545 80.5647C113.028 72.9695 120.74 63.2523 127.933 63.6078C141.418 64.2745 145.474 74.5961 142.598 81.171C139.723 87.7459 125.442 90.0588 118.545 80.5647Z" fill="#4A9E41"/>
<path d="M64.9305 109.548C63.6121 100.26 74.9821 95.2696 81.1728 98.9405C92.7804 105.823 91.5298 116.84 85.9077 121.31C80.2855 125.78 66.5785 121.159 64.9305 109.548Z" fill="#4A9E41"/>
<path d="M149.257 113.913C147.939 104.624 159.309 99.6339 165.499 103.305C177.107 110.188 175.856 121.204 170.234 125.674C164.612 130.144 150.905 125.523 149.257 113.913Z" fill="#4A9E41"/>
<path d="M83.6282 96.0034C82.3098 86.7147 93.6799 81.7247 99.8706 85.3956C111.478 92.2784 110.228 103.295 104.605 107.765C98.9833 112.235 85.2762 107.614 83.6282 96.0034Z" fill="#4A9E41"/>
<path d="M130.484 97.6019C133.073 88.7393 122.699 82.2882 116.154 84.9973C103.882 90.0769 103.552 100.982 108.4 106.122C113.248 111.262 127.248 108.68 130.484 97.6019Z" fill="#5DC15C"/>
<path d="M27.766 88.2672C28.6932 79.0821 17.3155 74.6259 11.3745 78.4803C0.235213 85.7072 1.90265 96.4895 7.60812 100.662C13.3136 104.834 26.6071 99.7485 27.766 88.2672Z" fill="#5DC15C"/>
<path d="M57.4291 51.3948C58.3856 42.1881 47.1857 37.7756 41.3091 41.6645C30.2905 48.9561 31.8853 59.7512 37.4928 63.9053C43.1002 68.0594 56.2334 62.9032 57.4291 51.3948Z" fill="#5DC15C"/>
<path d="M134.555 72.9714C136.414 65.7411 127.861 60.7997 122.642 63.1609C112.858 67.5881 112.879 76.4098 116.932 80.4367C120.986 84.4637 132.232 82.0093 134.555 72.9714Z" fill="#5DC15C"/>
<path d="M113.871 76.614C115.729 69.3836 107.176 64.4423 101.958 66.8034C92.1734 71.2307 92.1944 80.0524 96.2478 84.0793C100.301 88.1063 111.547 85.6519 113.871 76.614Z" fill="#5DC15C"/>
<path d="M75.7873 97.4828C77.4927 88.4095 66.5354 83.005 60.2879 86.3418C48.5738 92.5985 49.3177 103.483 54.6475 108.124C59.9773 112.765 73.6556 108.824 75.7873 97.4828Z" fill="#5DC15C"/>
<path d="M175.049 88.2502C178.561 79.7101 168.929 72.2018 162.133 74.206C149.392 77.9639 147.911 88.7732 152.188 94.3957C156.465 100.018 170.659 98.9254 175.049 88.2502Z" fill="#5DC15C"/>
<path d="M127.646 97.7214C125.015 88.715 135.557 82.1591 142.208 84.9122C154.68 90.0742 155.015 101.156 150.088 106.38C145.162 111.604 130.935 108.979 127.646 97.7214Z" fill="#5DC15C"/>
<path d="M24.9976 88.9006C20.766 80.5236 29.9339 72.1599 36.9768 73.6569C50.1823 76.4639 52.5354 87.2994 48.6451 93.3318C44.7549 99.3642 30.2871 99.3718 24.9976 88.9006Z" fill="#5DC15C"/>
<path d="M59.6802 77.2514C56.2585 70.4778 63.6716 63.7151 69.3665 64.9255C80.0443 67.1952 81.9469 75.9567 78.8013 80.8345C75.6557 85.7122 63.9572 85.7183 59.6802 77.2514Z" fill="#5DC15C"/>
<path d="M66.9804 57.2143C63.5588 50.4407 70.9719 43.6779 76.6668 44.8884C87.3446 47.1581 89.2472 55.9196 86.1016 60.7974C82.956 65.6751 71.2575 65.6812 66.9804 57.2143Z" fill="#5DC15C"/>
<path d="M124.649 38.2588C121.333 31.6929 128.518 25.1373 134.039 26.3107C144.389 28.5108 146.234 37.0038 143.184 41.7321C140.135 46.4603 128.795 46.4663 124.649 38.2588Z" fill="#5DC15C"/>
<path d="M133.449 40.0801C136.766 33.5142 129.58 26.9586 124.059 28.132C113.709 30.3321 111.864 38.8251 114.914 43.5534C117.963 48.2816 129.303 48.2876 133.449 40.0801Z" fill="#5DC15C"/>
<path d="M84.3188 39.4737C81.002 32.9077 88.1879 26.3522 93.7082 27.5256C104.059 29.7257 105.903 38.2187 102.854 42.9469C99.8047 47.6752 88.4647 47.6811 84.3188 39.4737Z" fill="#5DC15C"/>
<path d="M91.9087 38.49C94.829 32.8556 89.056 27.509 84.4556 28.6467C75.8297 30.78 74.0767 38.0031 76.4745 41.9161C78.8723 45.8291 88.2582 45.5329 91.9087 38.49Z" fill="#5DC15C"/>
<path d="M105.169 55.4933C97.5789 55.0896 95.3841 45.3082 99.2672 40.978C106.548 32.8589 115.111 35.5663 117.788 40.715C120.466 45.8637 114.656 55.9979 105.169 55.4933Z" fill="#5DC15C"/>
<path d="M72.9757 97.8795C69.4722 89.1741 79.3187 81.6177 86.2088 83.7063C99.1277 87.6225 100.55 98.6183 96.1607 104.299C91.7712 109.98 77.355 108.761 72.9757 97.8795Z" fill="#5DC15C"/>
<path d="M172.215 88.0702C170.552 78.8369 181.728 73.4286 188.051 76.8672C199.907 83.3147 199.068 94.3701 193.616 99.0455C188.164 103.721 174.294 99.6119 172.215 88.0702Z" fill="#5DC15C"/>
<path d="M161.872 63.7185C159.241 54.712 169.783 48.1561 176.435 50.9092C188.906 56.0713 189.241 67.1534 184.314 72.3771C179.388 77.6008 165.161 74.9765 161.872 63.7185Z" fill="#5DC15C"/>
<path d="M154.155 42.3324C163.245 44.7228 163.443 57.1177 157.651 61.3886C146.792 69.3965 137.103 63.9726 135.156 57.067C133.209 50.1613 142.793 39.3445 154.155 42.3324Z" fill="#5DC15C"/>
<path d="M20.3325 128H99.515H180.872C191.038 128 198.627 137.358 196.527 147.305L169.504 275.305C167.942 282.705 161.412 288 153.849 288H99.515H47.3547C39.7919 288 33.2619 282.705 31.6998 275.305L4.67754 147.305C2.57758 137.358 10.1661 128 20.3325 128Z" fill="#24D298"/>
<path d="M59.3542 226.273C65.8649 224.39 66.8761 217.644 66.5678 214.506C67.1597 208.423 63.7934 205.273 62.3137 204.006C61.3888 203.282 59.1323 201.58 52.3256 201.29C45.519 201.001 41.9677 203.946 41.0429 205.454C39.9331 206.902 37.9355 211.247 38.8233 217.04C39.7111 222.833 43.879 225.609 45.8519 226.273C47.6399 227.057 52.8435 228.155 59.3542 226.273Z" fill="#FFC9E2"/>
<path d="M141.85 226.273C135.339 224.39 134.328 217.644 134.636 214.506C134.044 208.423 137.411 205.273 138.89 204.006C139.815 203.282 142.072 201.58 148.878 201.29C155.685 201.001 159.236 203.946 160.161 205.454C161.271 206.902 163.269 211.247 162.381 217.04C161.493 222.833 157.325 225.609 155.352 226.273C153.564 227.057 148.361 228.155 141.85 226.273Z" fill="#FFC9E2"/>
<path fill-rule="evenodd" clip-rule="evenodd" d="M147.567 198.084C149.514 201.774 150.284 206.369 150.369 209.47C150.399 210.576 151.351 211.449 152.496 211.419C153.641 211.39 154.545 210.47 154.514 209.364C154.42 205.88 153.575 200.649 151.262 196.265C148.925 191.835 144.86 187.93 138.367 188.18C132.026 188.425 128.042 192.143 125.723 196.35C123.436 200.498 122.629 205.317 122.565 208.512C122.543 209.618 123.453 210.532 124.598 210.553C125.743 210.575 126.689 209.695 126.712 208.589C126.767 205.834 127.485 201.677 129.383 198.233C131.25 194.847 134.112 192.354 138.533 192.184C142.803 192.019 145.644 194.438 147.567 198.084Z" fill="#222222"/>
<path fill-rule="evenodd" clip-rule="evenodd" d="M53.637 198.248C51.69 201.938 50.9199 206.533 50.8354 209.634C50.8053 210.74 49.8528 211.613 48.708 211.584C47.5632 211.554 46.6596 210.634 46.6897 209.528C46.7846 206.044 47.6289 200.813 49.942 196.429C52.2789 191.999 56.3439 188.094 62.8367 188.344C69.1777 188.589 73.1622 192.307 75.4811 196.514C77.7677 200.662 78.5747 205.481 78.6389 208.676C78.6611 209.782 77.751 210.696 76.606 210.717C75.461 210.739 74.5148 209.86 74.4925 208.753C74.4372 205.999 73.7195 201.842 71.8206 198.397C69.9541 195.011 67.0925 192.519 62.671 192.348C58.4012 192.183 55.5603 194.602 53.637 198.248Z" fill="#222222"/>
<path d="M83.8858 214.293H116.788C118.38 214.271 121.645 214.917 120.182 219.501C118.354 225.23 112.349 228.875 109.476 229.657C106.604 230.438 104.861 230.959 100.337 230.959C95.8127 230.959 94.0696 230.438 91.1972 229.657C88.3249 228.875 82.319 225.23 80.4911 219.501C79.0288 214.917 82.1884 214.271 83.8858 214.293Z" fill="#222222"/>
<path d="M90.3193 226.84C93.4065 228.517 97.7463 229.394 100.407 229.394C103.069 229.394 107.408 228.517 110.496 226.84C111.388 226.356 111.308 225.2 110.386 224.77C108.211 223.758 104.651 222.615 100.407 222.615C96.1643 222.615 92.6041 223.758 90.4293 224.77C89.5074 225.2 89.4266 226.356 90.3193 226.84Z" fill="white"/>
<path d="M85.4276 220.268C87.3436 221.937 96.3384 222.528 100.596 222.615C104.854 222.528 113.849 221.937 115.765 220.268C117.681 218.599 116.563 216.965 115.765 216.357C115.144 216.183 113.21 215.835 110.443 215.835H90.7499C87.9823 215.835 86.0485 216.183 85.4276 216.357C84.6292 216.965 83.5115 218.599 85.4276 220.268Z" fill="white"/>
</svg>
