<?xml version="1.0" encoding="UTF-8"?>
<svg xmlns="http://www.w3.org/2000/svg" viewBox="0 0 586.15 576.64">
  <defs>
    <style>
      .c {
        fill: #f9f9f9;
      }

      .d {
        fill: #ffc850;
      }
    </style>
  </defs>
  <g id="a" data-name="Layer 4 copy 2">
    <circle class="d" cx="291.5" cy="293.14" r="247.5"/>
  </g>
  <g id="b" data-name="Layer 11">
    <circle class="c" cx="290.5" cy="292.14" r="69.5"/>
    <rect class="c" x="281" y="153.64" width="20" height="50" rx="10" ry="10"/>
    <rect class="c" x="200" y="186.64" width="20" height="50" rx="10" ry="10" transform="translate(-88.09 217.75) rotate(-46.4)"/>
    <rect class="c" x="167" y="267.64" width="20" height="50" rx="10" ry="10" transform="translate(-115.64 469.64) rotate(-90)"/>
    <rect class="c" x="201" y="347.64" width="20" height="50" rx="10" ry="10" transform="translate(325.3 -40.05) rotate(45)"/>
    <rect class="c" x="281" y="381.64" width="20" height="50" rx="10" ry="10"/>
    <rect class="c" x="361.85" y="348.09" width="20" height="50" rx="10" ry="10" transform="translate(-154.9 372.21) rotate(-45)"/>
    <rect class="c" x="395" y="267.64" width="20" height="50" rx="10" ry="10" transform="translate(697.64 -112.36) rotate(90)"/>
    <rect class="c" x="361.85" y="186.96" width="20" height="50" rx="10" ry="10" transform="translate(258.79 -200.86) rotate(45)"/>
  </g>
</svg>