<?xml version="1.0" encoding="UTF-8"?>
<svg xmlns="http://www.w3.org/2000/svg" viewBox="0 0 194.65 262.54">
  <defs>
    <style>
      .c {
        fill: #69ad4d;
      }

      .d {
        fill: #ffc9e2;
      }

      .e {
        fill: #579a3b;
      }

      .f {
        fill: #7ebf62;
      }

      .g {
        fill: #f78077;
      }

      .h {
        fill: none;
        stroke: #99c885;
        stroke-width: 4px;
      }

      .i {
        fill-rule: evenodd;
      }
    </style>
  </defs>
  <g id="a" data-name="Layer 1">
    <path class="h" d="m18.14,69.46c3.04,9.95,9.43,31.34,10.65,37.38"/>
    <path class="h" d="m26.06,68.09c1.54,10.38,4.69,32.67,5.01,38.85"/>
    <path class="h" d="m59.5,26.25c2.33,23.89,6.63,72.77,5.17,77.16"/>
    <path class="h" d="m50.68,29c2.33,23.89,6.63,72.77,5.17,77.16"/>
    <path class="h" d="m72.76,28.61l4.69,74.75"/>
    <path class="h" d="m55.61,33.47l9.42,74.31"/>
    <path class="h" d="m112.13,19.74l-7.91,85.39"/>
    <path class="h" d="m106.35,48.65l-7.91,55.86"/>
    <path class="h" d="m83.23,11.01l7.91,91.69"/>
    <path class="h" d="m80.37,67.98l2.67,35.9"/>
    <path class="h" d="m129.47,9.79l-5.78,92.59"/>
    <path class="h" d="m171.3,65.78l-5.7,36.82"/>
    <path class="h" d="m165.97,40.76l-10.34,63.6"/>
    <path class="h" d="m144.68,32.87l-6.08,70.43"/>
    <path class="c" d="m30.99,66.26c4.68-7.96-3.81-16.75-10.82-15.71-13.14,1.94-16.13,12.43-12.68,18.6,3.45,6.17,17.65,7.07,23.5-2.89Z"/>
    <path class="c" d="m82.68,72.13c3.83-8.4-5.52-16.26-12.38-14.51-12.87,3.28-14.76,14.03-10.69,19.81,4.06,5.78,18.29,5.21,23.07-5.29Z"/>
    <path class="c" d="m166.09,65.47c-.55-9.22-12.5-11.8-17.75-7.05-9.84,8.91-6.47,19.29-.17,22.5,6.3,3.21,18.61-3.93,17.92-15.45Z"/>
    <path class="c" d="m118.03,53.33c-.55-9.21-12.5-11.8-17.75-7.05-9.84,8.91-6.47,19.29-.17,22.5,6.3,3.21,18.61-3.93,17.92-15.45Z"/>
    <path class="c" d="m64.61,83.66c3.83-8.4-5.52-16.26-12.38-14.51-12.87,3.28-14.76,14.03-10.69,19.81,4.06,5.78,18.29,5.21,23.07-5.29Z"/>
    <path class="c" d="m148.93,88.02c3.83-8.4-5.52-16.26-12.38-14.51-12.87,3.28-14.75,14.03-10.69,19.81,4.07,5.78,18.29,5.21,23.07-5.29Z"/>
    <path class="c" d="m65.64,38.13c3.83-8.4-5.52-16.26-12.38-14.51-12.87,3.28-14.76,14.03-10.69,19.81,4.06,5.78,18.29,5.21,23.07-5.29Z"/>
    <path class="e" d="m92.41,41.77c3.83-8.4-5.52-16.26-12.38-14.51-12.87,3.28-14.76,14.03-10.69,19.81,4.06,5.78,18.29,5.21,23.07-5.29Z"/>
    <path class="e" d="m117.79,27.81c2.45-5.38-3.54-10.42-7.93-9.3-8.25,2.1-9.45,8.99-6.85,12.69,2.6,3.7,11.72,3.34,14.78-3.39Z"/>
    <path class="c" d="m28.21,65.69c-.35-9.37,11.47-13.17,17.25-8.88,10.83,8.04,8.45,18.87,2.4,22.74-6.05,3.87-19.21-2.14-19.65-13.86Z"/>
    <path class="c" d="m163.46,66.54c-5.52-7.6,2.2-17.31,9.39-16.96,13.49.67,17.54,10.99,14.67,17.56-2.88,6.57-17.16,8.89-24.05-.61Z"/>
    <path class="c" d="m115.4,54.39c-5.52-7.6,2.19-17.31,9.39-16.96,13.49.67,17.54,10.99,14.67,17.56-2.88,6.57-17.16,8.89-24.05-.61Z"/>
    <path class="c" d="m61.78,83.37c-1.32-9.29,10.05-14.28,16.24-10.61,11.61,6.88,10.36,17.9,4.73,22.37-5.62,4.47-19.33-.15-20.98-11.76Z"/>
    <path class="c" d="m146.11,87.74c-1.32-9.29,10.05-14.28,16.24-10.61,11.61,6.88,10.36,17.9,4.74,22.37-5.62,4.47-19.33-.15-20.98-11.76Z"/>
    <path class="c" d="m80.48,69.83c-1.32-9.29,10.05-14.28,16.24-10.61,11.61,6.88,10.36,17.9,4.73,22.37-5.62,4.47-19.33-.15-20.98-11.76Z"/>
    <path class="f" d="m127.33,71.43c2.59-8.86-7.78-15.31-14.33-12.6-12.27,5.08-12.6,15.98-7.75,21.12s18.85,2.56,22.08-8.52Z"/>
    <path class="f" d="m24.62,62.09c.93-9.19-10.45-13.64-16.39-9.79-11.14,7.23-9.47,18.01-3.77,22.18,5.71,4.17,19-.91,20.16-12.39Z"/>
    <path class="f" d="m54.28,25.22c.96-9.21-10.24-13.62-16.12-9.73-11.02,7.29-9.42,18.09-3.82,22.24,5.61,4.15,18.74-1,19.94-12.51Z"/>
    <path class="f" d="m131.41,46.8c1.86-7.23-6.69-12.17-11.91-9.81-9.78,4.43-9.76,13.25-5.71,17.28,4.05,4.03,15.3,1.57,17.62-7.47Z"/>
    <path class="f" d="m110.72,50.44c1.86-7.23-6.69-12.17-11.91-9.81-9.78,4.43-9.76,13.25-5.71,17.28,4.05,4.03,15.3,1.57,17.62-7.47Z"/>
    <path class="f" d="m72.64,71.31c1.71-9.07-9.25-14.48-15.5-11.14-11.71,6.26-10.97,17.14-5.64,21.78s19.01.7,21.14-10.64Z"/>
    <path class="f" d="m171.9,62.08c3.51-8.54-6.12-16.05-12.92-14.04-12.74,3.76-14.22,14.57-9.94,20.19,4.28,5.62,18.47,4.53,22.86-6.15Z"/>
    <path class="f" d="m124.5,71.55c-2.63-9.01,7.91-15.56,14.56-12.81,12.47,5.16,12.81,16.24,7.88,21.47-4.93,5.22-19.15,2.6-22.44-8.66Z"/>
    <path class="f" d="m21.85,62.73c-4.23-8.38,4.94-16.74,11.98-15.24,13.21,2.81,15.56,13.64,11.67,19.67-3.89,6.03-18.36,6.04-23.65-4.43Z"/>
    <path class="f" d="m56.53,51.08c-3.42-6.77,3.99-13.54,9.69-12.33,10.68,2.27,12.58,11.03,9.43,15.91-3.15,4.88-14.84,4.88-19.12-3.58Z"/>
    <path class="f" d="m63.83,31.04c-3.42-6.77,3.99-13.54,9.69-12.33,10.68,2.27,12.58,11.03,9.43,15.91-3.15,4.88-14.84,4.88-19.12-3.58Z"/>
    <path class="f" d="m121.5,12.09c-3.32-6.57,3.87-13.12,9.39-11.95,10.35,2.2,12.19,10.69,9.15,15.42-3.05,4.73-14.39,4.73-18.54-3.47Z"/>
    <path class="f" d="m130.3,13.91c3.32-6.57-3.87-13.12-9.39-11.95-10.35,2.2-12.19,10.69-9.14,15.42,3.05,4.73,14.39,4.73,18.54-3.47Z"/>
    <path class="f" d="m81.17,13.3c-3.32-6.57,3.87-13.12,9.39-11.95,10.35,2.2,12.19,10.69,9.15,15.42-3.05,4.73-14.39,4.73-18.54-3.47Z"/>
    <path class="f" d="m88.76,12.32c2.92-5.63-2.85-10.98-7.45-9.84-8.63,2.13-10.38,9.36-7.98,13.27,2.4,3.91,11.78,3.62,15.43-3.43Z"/>
    <path class="f" d="m102.02,29.32c-7.59-.4-9.78-10.19-5.9-14.52,7.28-8.12,15.84-5.41,18.52-.26,2.68,5.15-3.13,15.28-12.62,14.78Z"/>
    <path class="f" d="m69.83,71.71c-3.5-8.71,6.34-16.26,13.23-14.17,12.92,3.92,14.34,14.91,9.95,20.59-4.39,5.68-18.81,4.46-23.18-6.42Z"/>
    <path class="f" d="m169.07,61.9c-1.66-9.23,9.51-14.64,15.84-11.2,11.86,6.45,11.02,17.5,5.57,22.18-5.45,4.68-19.32.57-21.4-10.98Z"/>
    <path class="f" d="m158.72,37.54c-2.63-9.01,7.91-15.56,14.56-12.81,12.47,5.16,12.81,16.24,7.88,21.47-4.93,5.22-19.15,2.6-22.44-8.66Z"/>
    <path class="f" d="m151.01,16.16c9.09,2.39,9.29,14.79,3.5,19.06-10.86,8.01-20.55,2.58-22.49-4.32-1.95-6.91,7.64-17.72,19-14.73Z"/>
    <path class="g" d="m17.21,102.83h160.59c10.18,0,17.77,9.37,15.65,19.33l-26.99,127c-1.57,7.39-8.1,12.67-15.65,12.67H44.2c-7.55,0-14.08-5.28-15.65-12.67L1.56,122.15c-2.12-9.95,5.47-19.33,15.65-19.33Z"/>
  </g>
  <g id="b" data-name="Layer 6">
    <path class="d" d="m56.2,202.25c6.51-1.96,7.52-8.99,7.21-12.26.59-6.34-2.77-9.62-4.25-10.94-.92-.76-3.18-2.53-9.99-2.83-6.81-.3-10.36,2.77-11.28,4.34-1.11,1.51-3.11,6.04-2.22,12.07.89,6.04,5.06,8.93,7.03,9.62,1.79.82,6.99,1.96,13.5,0Z"/>
    <path class="d" d="m138.69,202.25c-6.51-1.96-7.52-8.99-7.21-12.26-.59-6.34,2.77-9.62,4.25-10.94.93-.76,3.18-2.53,9.99-2.83,6.81-.3,10.36,2.77,11.28,4.34,1.11,1.51,3.11,6.04,2.22,12.07-.89,6.04-5.06,8.93-7.03,9.62-1.79.82-6.99,1.96-13.5,0Z"/>
    <path class="i" d="m151.35,160.31c-.1-.9-.89-1.55-1.78-1.46-3.54.38-9.14,1.21-14.51,2.44-2.68.62-5.33,1.34-7.65,2.17-2.28.82-4.37,1.79-5.82,2.94l-.96.76.45,1.14c.21.52.61,1.05,1.07,1.55.5.53,1.17,1.14,2.05,1.8,1.76,1.34,4.41,2.96,8.26,4.74,7.54,3.49,14.19,6.64,16.58,7.78.81.39,1.77.04,2.16-.78s.04-1.8-.77-2.18c-2.39-1.14-9.06-4.3-16.61-7.79-2.68-1.24-4.71-2.38-6.2-3.36l20.2,2.86c.89.12,1.71-.5,1.83-1.4.12-.9-.49-1.73-1.38-1.85l-20.41-2.89c.2-.08.42-.16.63-.23,2.15-.77,4.67-1.46,7.28-2.06,5.22-1.2,10.7-2.01,14.14-2.38.89-.1,1.53-.9,1.44-1.81Z"/>
    <path class="i" d="m43.54,160.31c.1-.9.89-1.55,1.78-1.46,3.54.38,9.14,1.21,14.51,2.44,2.68.62,5.33,1.34,7.65,2.17,2.28.82,4.37,1.79,5.82,2.94l.96.76-.45,1.14c-.21.52-.61,1.05-1.07,1.55-.5.53-1.17,1.14-2.05,1.8-1.76,1.34-4.41,2.96-8.26,4.74-7.54,3.49-14.19,6.64-16.58,7.78-.81.39-1.78.04-2.16-.78-.38-.82-.03-1.8.77-2.18,2.39-1.14,9.06-4.3,16.61-7.79,2.68-1.24,4.71-2.38,6.2-3.36l-20.2,2.86c-.89.12-1.71-.5-1.83-1.4s.49-1.73,1.38-1.85l20.41-2.89c-.21-.08-.42-.16-.63-.23-2.15-.77-4.67-1.46-7.28-2.06-5.22-1.2-10.7-2.01-14.14-2.38-.89-.1-1.53-.9-1.44-1.81Z"/>
    <path class="i" d="m100,177.96l6.06,7.17,6.58-5.9,5.91,6.96c.48.57.42,1.43-.15,1.91-.57.49-1.42.42-1.9-.15l-4.12-4.85-6.59,5.91-5.86-6.94-6.47,7.1-5.54-7.12-3.94,3.87c-.53.52-1.39.51-1.91-.03-.52-.54-.51-1.39.02-1.92l6.09-5.98,5.44,6.98,6.39-7.01Z"/>
  </g>
</svg>