<svg width="59" height="51" viewBox="0 0 59 51" fill="none" xmlns="http://www.w3.org/2000/svg">
<path d="M29.3303 0.000312746C28.6376 0.0113585 27.9763 0.291546 27.4865 0.781563L0.819886 27.4482C0.563957 27.6939 0.359629 27.9883 0.218869 28.3139C0.0781092 28.6396 0.00374754 28.9901 0.000138031 29.3449C-0.00347148 29.6997 0.0637443 30.0516 0.197849 30.3801C0.331953 30.7085 0.530251 31.0069 0.781127 31.2578C1.032 31.5087 1.33042 31.707 1.65889 31.8411C1.98736 31.9752 2.33929 32.0424 2.69407 32.0388C3.04884 32.0352 3.39933 31.9608 3.72501 31.8201C4.05068 31.6793 4.345 31.475 4.59072 31.2191L29.372 6.43781L54.1532 31.2191C54.3989 31.475 54.6933 31.6793 55.0189 31.8201C55.3446 31.9608 55.6951 32.0352 56.0499 32.0388C56.4046 32.0424 56.7566 31.9752 57.0851 31.8411C57.4135 31.707 57.7119 31.5087 57.9628 31.2578C58.2137 31.007 58.412 30.7085 58.5461 30.3801C58.6802 30.0516 58.7474 29.6997 58.7438 29.3449C58.7402 28.9901 58.6658 28.6396 58.5251 28.3139C58.3843 27.9883 58.18 27.6939 57.924 27.4482L31.2574 0.781563C31.0049 0.528922 30.7042 0.329585 30.3731 0.195381C30.0421 0.0611774 29.6875 -0.00515729 29.3303 0.000312746ZM29.3303 18.667C28.6376 18.678 27.9763 18.9582 27.4865 19.4482L0.819886 46.1149C0.563957 46.3606 0.359629 46.6549 0.218869 46.9806C0.0781092 47.3063 0.00374754 47.6568 0.000138031 48.0115C-0.00347148 48.3663 0.0637443 48.7182 0.197849 49.0467C0.331953 49.3752 0.530251 49.6736 0.781127 49.9245C1.032 50.1754 1.33042 50.3737 1.65889 50.5078C1.98736 50.6419 2.33929 50.7091 2.69407 50.7055C3.04884 50.7019 3.39933 50.6275 3.72501 50.4867C4.05068 50.346 4.345 50.1417 4.59072 49.8857L29.372 25.1045L54.1532 49.8857C54.3989 50.1417 54.6933 50.346 55.0189 50.4867C55.3446 50.6275 55.6951 50.7019 56.0499 50.7055C56.4046 50.7091 56.7566 50.6419 57.0851 50.5078C57.4135 50.3737 57.7119 50.1754 57.9628 49.9245C58.2137 49.6736 58.412 49.3752 58.5461 49.0467C58.6802 48.7183 58.7474 48.3663 58.7438 48.0115C58.7402 47.6568 58.6658 47.3063 58.5251 46.9806C58.3843 46.6549 58.18 46.3606 57.924 46.1149L31.2574 19.4482C31.0049 19.1956 30.7042 18.9963 30.3731 18.862C30.0421 18.7278 29.6875 18.6615 29.3303 18.667Z" fill="#222222" fill-opacity="0.4"/>
</svg>
