<svg width="33" height="59" viewBox="0 0 33 59" fill="none" xmlns="http://www.w3.org/2000/svg">
<path d="M2.67927 0C2.14878 0.000139318 1.63038 0.158482 1.19036 0.454786C0.750333 0.751089 0.408673 1.17189 0.209054 1.66339C0.009435 2.15489 -0.0390696 2.69475 0.069741 3.21396C0.178552 3.73317 0.439732 4.20813 0.819894 4.57812L25.6011 29.3594L0.819894 54.1406C0.563963 54.3863 0.359634 54.6807 0.218873 55.0063C0.0781119 55.332 0.00374824 55.6825 0.000138078 56.0373C-0.00347208 56.3921 0.0637444 56.744 0.197849 57.0725C0.331953 57.4009 0.530251 57.6993 0.781129 57.9502C1.03201 58.2011 1.33042 58.3994 1.65889 58.5335C1.98737 58.6676 2.3393 58.7348 2.69407 58.7312C3.04885 58.7276 3.39934 58.6532 3.72501 58.5125C4.05069 58.3717 4.34501 58.1674 4.59073 57.9115L31.2574 31.2448C31.7573 30.7447 32.0381 30.0665 32.0381 29.3594C32.0381 28.6523 31.7573 27.9741 31.2574 27.474L4.59073 0.807292C4.34222 0.55184 4.04503 0.348787 3.71673 0.210129C3.38842 0.0714708 3.03565 2.0846e-05 2.67927 0Z" fill="#005261"/>
</svg>
