<svg width="60" height="52" viewBox="0 0 60 52" fill="none" xmlns="http://www.w3.org/2000/svg">
<path d="M56.6402 0.963633C55.9368 0.980263 55.2685 1.27417 54.7808 1.78134L29.9996 26.5626L5.21832 1.78134C4.96981 1.52589 4.67263 1.32283 4.34432 1.18418C4.01601 1.04552 3.66325 0.974068 3.30686 0.974048C2.77637 0.974187 2.25798 1.13253 1.81795 1.42883C1.37792 1.72514 1.03626 2.14594 0.836644 2.63743C0.637025 3.12893 0.58852 3.6688 0.697331 4.18801C0.806142 4.70722 1.06732 5.18218 1.44748 5.55217L28.1141 32.2188C28.6143 32.7187 29.2924 32.9996 29.9996 32.9996C30.7067 32.9996 31.3849 32.7187 31.885 32.2188L58.5516 5.55218C58.9389 5.17977 59.2047 4.69908 59.3141 4.17306C59.4236 3.64705 59.3716 3.10024 59.165 2.60428C58.9584 2.10831 58.6068 1.68631 58.1563 1.39356C57.7058 1.10081 57.1773 0.950958 56.6402 0.963633ZM56.6402 19.6303C55.9368 19.6469 55.2685 19.9408 54.7808 20.448L29.9996 45.2293L5.21832 20.448C4.96981 20.1926 4.67263 19.9895 4.34432 19.8508C4.01601 19.7122 3.66324 19.6407 3.30686 19.6407C2.77637 19.6409 2.25798 19.7992 1.81795 20.0955C1.37792 20.3918 1.03626 20.8126 0.836643 21.3041C0.637024 21.7956 0.588519 22.3355 0.69733 22.8547C0.806141 23.3739 1.06732 23.8488 1.44748 24.2188L28.1141 50.8855C28.6143 51.3854 29.2924 51.6662 29.9996 51.6662C30.7067 51.6662 31.3849 51.3854 31.885 50.8855L58.5516 24.2188C58.9389 23.8464 59.2047 23.3657 59.3141 22.8397C59.4236 22.3137 59.3716 21.7669 59.165 21.2709C58.9584 20.775 58.6068 20.353 58.1563 20.0602C57.7058 19.7675 57.1773 19.6176 56.6402 19.6303Z" fill="#222222" fill-opacity="0.4"/>
</svg>
