<svg width="33" height="60" viewBox="0 0 33 60" fill="none" xmlns="http://www.w3.org/2000/svg">
<path d="M29.2807 0.639831C28.5879 0.660474 27.9304 0.950019 27.4474 1.44712L0.780736 28.1138C0.280828 28.6139 0 29.2921 0 29.9992C0 30.7063 0.280828 31.3845 0.780736 31.8846L27.4474 58.5513C27.6931 58.8072 27.9874 59.0115 28.3131 59.1523C28.6388 59.2931 28.9893 59.3674 29.3441 59.371C29.6988 59.3747 30.0508 59.3074 30.3792 59.1733C30.7077 59.0392 31.0061 58.8409 31.257 58.5901C31.5079 58.3392 31.7062 58.0408 31.8403 57.7123C31.9744 57.3838 32.0416 57.0319 32.038 56.6771C32.0344 56.3223 31.96 55.9718 31.8193 55.6462C31.6785 55.3205 31.4742 55.0262 31.2182 54.7805L6.43698 29.9992L31.2182 5.21796C31.6036 4.84339 31.8668 4.36115 31.9733 3.83443C32.0799 3.30771 32.0248 2.76108 31.8154 2.26619C31.6059 1.77129 31.2519 1.35121 30.7996 1.061C30.3473 0.770794 29.8179 0.62399 29.2807 0.639831Z" fill="#005261"/>
</svg>
