<svg width="64" height="80" viewBox="0 0 64 80" fill="none" xmlns="http://www.w3.org/2000/svg">
<path d="M32 38C31.7873 38 31.5771 37.9889 31.3701 37.9672C31.3156 37.9614 31.2613 37.955 31.2073 37.9478C28.2725 37.5587 26 35.0393 26 32C26 31.7873 26.0111 31.5771 26.0328 31.3701C26.0386 31.3156 26.045 31.2613 26.0522 31.2073C26.4413 28.2725 28.9607 26 32 26C32.2127 26 32.4229 26.0111 32.6299 26.0328C32.6844 26.0385 32.7387 26.045 32.7927 26.0522C35.7275 26.4413 38 28.9607 38 32C38 32.2127 37.9889 32.4229 37.9672 32.6299C37.9614 32.6844 37.955 32.7387 37.9478 32.7927C37.5587 35.7275 35.0393 38 32 38Z" fill="#3F51B5"/>
<path d="M10 80H54V76L36 70V63.7513C34.6907 63.9153 33.357 63.9998 32.004 64C30.6482 63.9998 29.3119 63.915 28 63.7504V70L10 76V80Z" fill="#2196F3"/>
<path d="M54.626 46.142C55.41 45.36 55.41 44.096 54.626 43.314C54.626 43.314 43.7338 37.8672 37.9478 32.7927C37.5587 35.7275 35.0393 38 32 38C31.7873 38 31.5771 37.9889 31.3701 37.9672L37.656 51.798C43.314 60.284 54.626 46.142 54.626 46.142Z" fill="#2196F3"/>
<path fill-rule="evenodd" clip-rule="evenodd" d="M37.9672 32.6299C37.9614 32.6844 37.955 32.7387 37.9478 32.7927C37.5587 35.7275 35.0393 38 32 38C31.7873 38 31.5771 37.9889 31.3701 37.9672C31.3156 37.9614 31.2613 37.955 31.2073 37.9478C28.2725 37.5587 26 35.0393 26 32C26 31.7873 26.0111 31.5771 26.0328 31.3701C26.0386 31.3156 26.045 31.2613 26.0522 31.2073C26.4413 28.2725 28.9607 26 32 26C32.2127 26 32.4229 26.0111 32.6299 26.0328C32.6844 26.0385 32.7387 26.045 32.7927 26.0522C35.7275 26.4413 38 28.9607 38 32C38 32.2127 37.9889 32.4229 37.9672 32.6299Z" fill="#3F51B5"/>
<path d="M17.858 54.626C18.64 55.408 19.904 55.408 20.686 54.626C20.686 54.626 26.1328 43.7338 31.2073 37.9478C28.2725 37.5587 26 35.0393 26 32C26 31.7873 26.0111 31.5771 26.0328 31.3701L12.202 37.656C3.716 43.314 17.858 54.626 17.858 54.626Z" fill="#2196F3"/>
<path d="M9.374 17.858C8.59 18.64 8.59 19.904 9.374 20.686C9.374 20.686 20.2662 26.1328 26.0522 31.2073C26.4413 28.2725 28.9607 26 32 26C32.2127 26 32.4229 26.0111 32.6299 26.0328L26.344 12.202C20.686 3.716 9.374 17.858 9.374 17.858Z" fill="#2196F3"/>
<path d="M46.142 9.374C45.358 8.592 44.096 8.592 43.314 9.374C43.314 9.374 37.8672 20.2662 32.7927 26.0522C35.7275 26.4413 38 28.9607 38 32C38 32.2127 37.9889 32.4229 37.9672 32.6299L51.798 26.344C60.284 20.686 46.142 9.374 46.142 9.374Z" fill="#2196F3"/>
<path fill-rule="evenodd" clip-rule="evenodd" d="M32 0C14.356 -7.7124e-07 7.71244e-07 14.356 0 32C-7.11914e-07 48.2867 12.235 61.7729 28 63.7504C29.3119 63.915 30.6482 63.9998 32.004 64C33.357 63.9998 34.6907 63.9153 36 63.7513C51.7633 61.7767 64 48.289 64 32C64 14.356 49.644 7.71247e-07 32 0ZM54.626 43.314C55.41 44.096 55.41 45.36 54.626 46.142C54.626 46.142 43.314 60.284 37.656 51.798L31.3701 37.9672C31.3156 37.9614 31.2613 37.955 31.2073 37.9478C26.1328 43.7338 20.686 54.626 20.686 54.626C19.904 55.408 18.64 55.408 17.858 54.626C17.858 54.626 3.716 43.314 12.202 37.656L26.0328 31.3701C26.0386 31.3156 26.045 31.2613 26.0522 31.2073C20.2662 26.1328 9.374 20.686 9.374 20.686C8.59 19.904 8.59 18.64 9.374 17.858C9.374 17.858 20.686 3.716 26.344 12.202L32.6299 26.0328C32.6844 26.0385 32.7387 26.045 32.7927 26.0522C37.8672 20.2662 43.314 9.374 43.314 9.374C44.096 8.592 45.358 8.592 46.142 9.374C46.142 9.374 60.284 20.686 51.798 26.344L37.9672 32.6299C37.9614 32.6844 37.955 32.7387 37.9478 32.7927C43.7338 37.8672 54.626 43.314 54.626 43.314Z" fill="#BBDEFB"/>
</svg>
