<svg width="126" height="172" viewBox="0 0 126 172" fill="none" xmlns="http://www.w3.org/2000/svg">
<path d="M7.53727 93.7608C3.23114 88.8155 0.620604 82.6276 0.0860282 76.099L0.0859375 76.0978C0.0859375 76.0978 11.9826 73.6546 19.508 81.1735C27.174 88.8329 24.5962 100.548 24.5962 100.548L24.5951 100.548C18.2858 100.358 12.2456 97.9548 7.53727 93.7608Z" fill="#33C481"/>
<path d="M58.9431 143.416H56.8585H32.6771H8.49569H6.41032C4.9776 143.416 4.02246 142.213 4.02246 141.009V131.381H31.2852H37.7696H61.331V141.009C61.331 142.213 60.137 143.416 58.9431 143.416Z" fill="#BF360C"/>
<path fill-rule="evenodd" clip-rule="evenodd" d="M104.744 0H125.257V4H117.001V40H121.154V44H117.001V80H121.154V84H117.001V120H121.154V124H117.001V160H125.257V164H104.744V160H113.001V124H108.847V120H113.001V84H108.847V80H113.001V44H108.847V40H113.001V4H104.744V0Z" fill="black"/>
<path d="M7.53727 93.7608C3.23114 88.8155 0.620604 82.6276 0.0860282 76.099L0.0847261 76.0977C0.0847261 76.0977 -1.18376 89.136 6.09562 96.3976C9.41804 99.4316 13.593 101.377 18.0579 101.971C19.7492 102.245 21.3131 103.037 22.5327 104.238L31.2888 113.22L31.2852 131.381H37.7696V101.502C37.7696 91.6979 48.1901 97.2628 58.6254 87.2232C62.0663 83.7092 64.5591 79.4313 65.8838 74.7668C67.2085 70.1023 67.3245 65.1946 66.2215 60.4766L33.62 91.7579C32.8825 92.4649 32.2972 93.3059 31.8977 94.2323C31.4981 95.1588 31.2923 96.1524 31.292 97.156L31.2899 107.59L26.4215 102.396L26.4457 102.394L24.5951 100.548C18.2858 100.358 12.2456 97.9548 7.53727 93.7608Z" fill="#21A366"/>
<path d="M38.9756 67.8771C36.7288 70.1417 34.9589 72.8357 33.7708 75.7992C32.5828 78.7627 32.0009 81.9352 32.0596 85.1284L31.8977 94.2323C32.2972 93.3059 32.8825 92.4649 33.62 91.7579L66.2215 60.4766C66.2215 60.4766 49.7031 57.1883 38.9756 67.8771Z" fill="#33C481"/>
<path d="M14.0312 172.001H51.3229L56.8585 143.416H32.6771H8.49569L14.0312 172.001Z" fill="#E64A19"/>
</svg>
