<svg width="48" height="48" viewBox="0 0 48 48" fill="none" xmlns="http://www.w3.org/2000/svg">
<path d="M24 0C10.746 0 0 10.746 0 24C0 37.254 10.746 48 24 48C37.254 48 48 37.254 48 24C48 10.746 37.254 0 24 0ZM36 26H26V36C26 37.106 25.104 38 24 38C22.896 38 22 37.106 22 36V26H12C10.896 26 10 25.106 10 24C10 22.894 10.896 22 12 22H22V12C22 10.894 22.896 10 24 10C25.104 10 26 10.894 26 12V22H36C37.104 22 38 22.894 38 24C38 25.106 37.104 26 36 26Z" fill="#222222"/>
<path d="M36 26H26V36C26 37.106 25.104 38 24 38C22.896 38 22 37.106 22 36V26H12C10.896 26 10 25.106 10 24C10 22.894 10.896 22 12 22H22V12C22 10.894 22.896 10 24 10C25.104 10 26 10.894 26 12V22H36C37.104 22 38 22.894 38 24C38 25.106 37.104 26 36 26Z" fill="#F9F9F9"/>
</svg>
