<svg width="72" height="72" viewBox="0 0 72 72" fill="none" xmlns="http://www.w3.org/2000/svg">
<path d="M36 0C16.119 0 0 16.119 0 36C0 55.881 16.119 72 36 72C55.881 72 72 55.881 72 36C72 16.119 55.881 0 36 0ZM36 58.5C33.516 58.5 31.5 56.484 31.5 54C31.5 51.516 33.516 49.5 36 49.5C38.484 49.5 40.5 51.516 40.5 54C40.5 56.484 38.484 58.5 36 58.5ZM42.204 37.5C40.218 39.333 39 40.536 39 42H33C33 37.839 35.8388 35.2126 38.1231 33.0992C38.1264 33.0961 38.1297 33.0931 38.133 33.09C40.53 30.876 42 29.397 42 27C42 23.691 39.309 21 36 21C32.691 21 30 23.691 30 27H24C24 20.382 29.382 15 36 15C42.618 15 48 20.382 48 27C48 32.1416 44.7913 35.108 42.2092 37.4952C42.2075 37.4968 42.2057 37.4984 42.204 37.5Z" fill="#222222"/>
<path d="M42.204 37.5C40.218 39.333 39 40.536 39 42H33C33 37.839 35.8388 35.2126 38.1231 33.0992L38.133 33.09C40.53 30.876 42 29.397 42 27C42 23.691 39.309 21 36 21C32.691 21 30 23.691 30 27H24C24 20.382 29.382 15 36 15C42.618 15 48 20.382 48 27C48 32.1416 44.7913 35.108 42.2092 37.4952L42.204 37.5Z" fill="#F9F9F9"/>
<path d="M36 58.5C33.516 58.5 31.5 56.484 31.5 54C31.5 51.516 33.516 49.5 36 49.5C38.484 49.5 40.5 51.516 40.5 54C40.5 56.484 38.484 58.5 36 58.5Z" fill="#F9F9F9"/>
</svg>
