<svg width="62" height="73" viewBox="0 0 62 73" fill="none" xmlns="http://www.w3.org/2000/svg">
<path d="M13.8 63.96C5 60.96 4.8 45.56 0 42.56C3.52663 42.8959 9.45043 44.9239 19.429 50.7752C21.3343 51.8925 23.3875 53.1491 25.6 54.56C25.5291 56.1194 25.3075 57.4841 24.9563 58.6631C23.3257 64.137 18.9013 65.6056 13.8 63.96ZM46.6 64.56C54.4 63.56 57.4 50.36 62 48.56C58.4 48.16 51.6 49.96 38.4 54.76C38.3905 54.8185 38.4089 54.8833 38.4 54.9412C38.3938 54.9821 38.3601 55.0163 38.3542 55.0568C37.3529 61.898 40.727 64.8648 45.8228 64.6207C46.0776 64.6084 46.3368 64.5882 46.6 64.56Z" fill="#689F38"/>
<path d="M27.68 19.0003C27.68 24.0003 31.68 28.0003 36.68 28.0003C41.68 28.0003 45.68 24.0003 45.68 19.0003C45.68 14.0003 41.68 10.0003 36.68 10.0003C31.68 10.0003 27.68 14.0003 27.68 19.0003Z" fill="#FFEB3B"/>
<path d="M62 48.56C59.6 46.96 49.2 40.76 41.6 42.96C36.2108 44.5568 33.8372 50.7417 38.4 54.9412C38.4089 54.8833 38.3905 54.8185 38.4 54.76C51.6 49.96 58.4 48.16 62 48.56Z" fill="#8BC34A"/>
<path d="M30 70.56C30 71.76 30.8 72.56 32 72.56C32.0619 72.56 32.1227 72.5579 32.1824 72.5537C33.2804 72.4759 34 71.6878 34 70.36C34 64.1559 36.4634 61.0311 38.3813 59.5527C39.1455 63.1849 41.9996 64.8042 45.8228 64.6207C40.727 64.8648 37.3529 61.898 38.3542 55.0568C36.6863 55.8199 33.733 57.6172 31.8218 61.5867C30.6404 59.1879 28.8726 56.6418 26.2276 54.3777C31.9264 50.6215 30.8027 43.0579 25.2 40.16C17 35.76 3.2 41.36 0 42.56C3.52663 42.8959 9.45043 44.9239 19.429 50.7752C21.3343 51.8925 23.3875 53.1491 25.6 54.56C25.5291 56.1194 25.3075 57.4841 24.9563 58.6631C29.8809 63.9884 30 70.2513 30 70.56Z" fill="#8BC34A"/>
<path fill-rule="evenodd" clip-rule="evenodd" d="M42.68 32L36.68 38L30.68 32H23.68V25L17.68 19L23.68 13V6H30.68L36.68 0L42.68 6H49.68V13L55.68 19L49.68 25V32H42.68ZM36.68 28.0003C31.68 28.0003 27.68 24.0003 27.68 19.0003C27.68 14.0003 31.68 10.0003 36.68 10.0003C41.68 10.0003 45.68 14.0003 45.68 19.0003C45.68 24.0003 41.68 28.0003 36.68 28.0003Z" fill="#FF9800"/>
</svg>
