<svg width="86" height="86" viewBox="0 0 86 86" fill="none" xmlns="http://www.w3.org/2000/svg">
<path d="M42.9529 0.95935C42.1583 0.971772 41.401 1.29895 40.8474 1.86908C40.2937 2.43922 39.9889 3.20572 39.9998 4.00037V13.0004C39.9941 13.3979 40.0676 13.7926 40.2158 14.1615C40.3641 14.5304 40.5841 14.8662 40.8633 15.1493C41.1424 15.4324 41.475 15.6572 41.8418 15.8106C42.2086 15.9641 42.6022 16.0431 42.9998 16.0431C43.3973 16.0431 43.7909 15.9641 44.1577 15.8106C44.5245 15.6572 44.8571 15.4324 45.1362 15.1493C45.4154 14.8662 45.6355 14.5304 45.7837 14.1615C45.9319 13.7926 46.0054 13.3979 45.9998 13.0004V4.00037C46.0052 3.599 45.9301 3.20061 45.7789 2.82879C45.6277 2.45697 45.4033 2.11927 45.1192 1.83571C44.8351 1.55215 44.497 1.32848 44.1249 1.17795C43.7528 1.02741 43.3542 0.953081 42.9529 0.95935ZM15.3904 12.3969C14.7941 12.3982 14.2117 12.5771 13.7176 12.9109C13.2234 13.2447 12.84 13.7182 12.6161 14.2709C12.3923 14.8236 12.3382 15.4304 12.4608 16.014C12.5834 16.5975 12.8771 17.1313 13.3044 17.5472L19.6677 23.9105C19.9442 24.1984 20.2753 24.4283 20.6417 24.5866C21.008 24.745 21.4023 24.8287 21.8015 24.8327C22.2006 24.8368 22.5965 24.7611 22.966 24.6103C23.3355 24.4594 23.6713 24.2363 23.9535 23.9541C24.2357 23.6719 24.4588 23.3362 24.6097 22.9666C24.7605 22.5971 24.8362 22.2012 24.8321 21.8021C24.828 21.4029 24.7444 21.0086 24.586 20.6423C24.4277 20.2759 24.1978 19.9448 23.9099 19.6683L17.5466 13.3051C17.2664 13.017 16.9311 12.7881 16.5607 12.6321C16.1903 12.4761 15.7923 12.3961 15.3904 12.3969ZM70.5154 12.3969C69.736 12.4201 68.9962 12.7458 68.4529 13.3051L62.0896 19.6683C61.8017 19.9448 61.5718 20.2759 61.4135 20.6423C61.2551 21.0086 61.1715 21.4029 61.1674 21.8021C61.1634 22.2012 61.239 22.5971 61.3899 22.9666C61.5407 23.3361 61.7638 23.6718 62.046 23.9541C62.3283 24.2363 62.664 24.4594 63.0335 24.6103C63.403 24.7611 63.7989 24.8368 64.1981 24.8327C64.5972 24.8286 64.9915 24.745 65.3579 24.5866C65.7242 24.4283 66.0553 24.1984 66.3318 23.9105L72.6951 17.5472C73.1286 17.1259 73.4247 16.5833 73.5445 15.9908C73.6644 15.3982 73.6025 14.7833 73.3669 14.2265C73.1312 13.6697 72.7329 13.1972 72.2241 12.8707C71.7153 12.5442 71.1197 12.379 70.5154 12.3969ZM42.9998 22.0004C37.4302 22.0004 32.0888 24.2129 28.1505 28.1511C24.2123 32.0894 21.9998 37.4308 21.9998 43.0004C21.9998 48.5699 24.2123 53.9113 28.1505 57.8496C32.0888 61.7879 37.4302 64.0004 42.9998 64.0004C48.5693 64.0004 53.9107 61.7879 57.849 57.8496C61.7873 53.9113 63.9998 48.5699 63.9998 43.0004C63.9998 37.4308 61.7873 32.0894 57.849 28.1511C53.9107 24.2129 48.5693 22.0004 42.9998 22.0004ZM3.99976 40.0004C3.60222 39.9947 3.20753 40.0682 2.83863 40.2164C2.46972 40.3647 2.13396 40.5848 1.85085 40.8639C1.56774 41.143 1.34294 41.4756 1.18949 41.8424C1.03605 42.2092 0.957031 42.6028 0.957031 43.0004C0.957031 43.3979 1.03605 43.7916 1.18949 44.1583C1.34294 44.5251 1.56774 44.8577 1.85085 45.1368C2.13396 45.416 2.46972 45.6361 2.83863 45.7843C3.20753 45.9325 3.60222 46.006 3.99976 46.0004H12.9998C13.3973 46.006 13.792 45.9325 14.1609 45.7843C14.5298 45.6361 14.8656 45.416 15.1487 45.1368C15.4318 44.8577 15.6566 44.5251 15.81 44.1583C15.9635 43.7916 16.0425 43.3979 16.0425 43.0004C16.0425 42.6028 15.9635 42.2092 15.81 41.8424C15.6566 41.4756 15.4318 41.143 15.1487 40.8639C14.8656 40.5848 14.5298 40.3647 14.1609 40.2164C13.792 40.0682 13.3973 39.9947 12.9998 40.0004H3.99976ZM72.9997 40.0004C72.6022 39.9947 72.2075 40.0682 71.8386 40.2164C71.4697 40.3647 71.1339 40.5848 70.8508 40.8639C70.5677 41.143 70.3429 41.4756 70.1895 41.8424C70.036 42.2092 69.957 42.6028 69.957 43.0004C69.957 43.3979 70.036 43.7916 70.1895 44.1583C70.3429 44.5251 70.5677 44.8577 70.8508 45.1368C71.1339 45.416 71.4697 45.6361 71.8386 45.7843C72.2075 45.9325 72.6022 46.006 72.9997 46.0004H81.9997C82.3973 46.006 82.792 45.9325 83.1609 45.7843C83.5298 45.6361 83.8655 45.416 84.1487 45.1368C84.4318 44.8577 84.6566 44.5251 84.81 44.1583C84.9635 43.7916 85.0425 43.3979 85.0425 43.0004C85.0425 42.6028 84.9635 42.2092 84.81 41.8424C84.6566 41.4756 84.4318 41.143 84.1487 40.8639C83.8655 40.5848 83.5298 40.3647 83.1609 40.2164C82.792 40.0682 82.3973 39.9947 81.9997 40.0004H72.9997ZM21.7302 61.182C20.9508 61.2052 20.2111 61.531 19.6677 62.0902L13.3044 68.4535C13.0165 68.7299 12.7867 69.061 12.6283 69.4274C12.47 69.7938 12.3863 70.1881 12.3823 70.5872C12.3782 70.9863 12.4538 71.3822 12.6047 71.7518C12.7556 72.1213 12.9786 72.457 13.2609 72.7392C13.5431 73.0215 13.8788 73.2446 14.2484 73.3954C14.6179 73.5463 15.0138 73.6219 15.4129 73.6179C15.812 73.6138 16.2063 73.5302 16.5727 73.3718C16.9391 73.2135 17.2702 72.9836 17.5466 72.6957L23.9099 66.3324C24.3434 65.911 24.6395 65.3685 24.7594 64.7759C24.8793 64.1834 24.8173 63.5684 24.5817 63.0117C24.3461 62.4549 23.9478 61.9823 23.4389 61.6558C22.9301 61.3293 22.3345 61.1642 21.7302 61.182ZM64.1814 61.182C63.5846 61.1822 63.0014 61.3603 62.5064 61.6936C62.0113 62.027 61.627 62.5004 61.4024 63.0533C61.1778 63.6063 61.1233 64.2136 61.2457 64.7977C61.3681 65.3818 61.6619 65.9162 62.0896 66.3324L68.4529 72.6957C68.7293 72.9836 69.0604 73.2134 69.4268 73.3718C69.7932 73.5301 70.1875 73.6138 70.5866 73.6178C70.9857 73.6219 71.3816 73.5463 71.7511 73.3954C72.1207 73.2445 72.4564 73.0215 72.7386 72.7392C73.0208 72.457 73.2439 72.1213 73.3948 71.7518C73.5457 71.3822 73.6213 70.9863 73.6172 70.5872C73.6132 70.1881 73.5295 69.7938 73.3712 69.4274C73.2128 69.061 72.983 68.7299 72.6951 68.4535L66.3318 62.0902C66.0522 61.8028 65.7179 61.5744 65.3485 61.4184C64.9792 61.2624 64.5823 61.182 64.1814 61.182ZM42.9529 69.9594C42.1583 69.9718 41.401 70.299 40.8474 70.8691C40.2937 71.4392 39.9889 72.2057 39.9998 73.0004V82.0004C39.9941 82.3979 40.0676 82.7926 40.2158 83.1615C40.3641 83.5304 40.5841 83.8662 40.8633 84.1493C41.1424 84.4324 41.475 84.6572 41.8418 84.8106C42.2086 84.9641 42.6022 85.0431 42.9998 85.0431C43.3973 85.0431 43.7909 84.9641 44.1577 84.8106C44.5245 84.6572 44.8571 84.4324 45.1362 84.1493C45.4154 83.8662 45.6355 83.5304 45.7837 83.1615C45.9319 82.7926 46.0054 82.3979 45.9998 82.0004V73.0004C46.0052 72.599 45.9301 72.2006 45.7789 71.8288C45.6277 71.457 45.4033 71.1193 45.1192 70.8357C44.8351 70.5521 44.497 70.3285 44.1249 70.1779C43.7528 70.0274 43.3542 69.9531 42.9529 69.9594Z" fill="#FF9A20"/>
</svg>
