<svg width="72" height="64" viewBox="0 0 72 64" fill="none" xmlns="http://www.w3.org/2000/svg">
<path d="M67.9988 64H3.99877C2.56477 64 1.24477 63.234 0.530771 61.992C-0.181229 60.75 -0.177229 59.222 0.544771 57.984L32.5448 1.984C33.2608 0.755999 34.5768 0 35.9988 0C37.4208 0 38.7368 0.755999 39.4548 1.984L71.4548 57.984C72.1768 59.222 72.1808 60.75 71.4688 61.992C70.7568 63.234 69.4308 64 67.9988 64Z" fill="#FFD026"/>
<path d="M31.9988 52.284C31.9988 51.746 32.0928 51.254 32.2848 50.792C32.4728 50.336 32.7428 49.94 33.0908 49.608C33.4328 49.272 33.8548 49.01 34.3388 48.822C34.8268 48.638 35.3748 48.54 35.9868 48.54C36.5988 48.54 37.1508 48.638 37.6428 48.822C38.1428 49.01 38.5648 49.272 38.9068 49.608C39.2568 49.94 39.5268 50.336 39.7128 50.792C39.9048 51.254 39.9988 51.746 39.9988 52.284C39.9988 52.824 39.9048 53.316 39.7128 53.764C39.5248 54.214 39.2548 54.602 38.9068 54.94C38.5648 55.272 38.1428 55.532 37.6428 55.724C37.1508 55.908 36.5988 56 35.9868 56C35.3728 56 34.8268 55.908 34.3388 55.722C33.8548 55.53 33.4328 55.27 33.0908 54.938C32.7408 54.6 32.4708 54.212 32.2848 53.762C32.0928 53.314 31.9988 52.822 31.9988 52.284ZM38.9588 44H33.0128L32.1708 20H39.7988L38.9588 44Z" fill="#5D4037"/>
</svg>
