<svg width="270" height="160" viewBox="0 0 270 160" fill="none" xmlns="http://www.w3.org/2000/svg">
<path d="M238.722 139.225L240.85 131.314C240.909 131.08 241.133 130.049 241.559 127.799C241.985 125.548 241.382 123.814 241.027 123.228C239.313 120.943 235.743 116.161 235.176 115.318C234.608 114.474 233.875 113.091 233.58 112.505C233.166 111.157 232.268 108.251 231.984 107.407C231.7 106.563 230.802 106.352 230.388 106.352C229.797 106.47 228.331 106.809 227.197 107.231C225.778 107.759 222.409 107.759 221.7 107.759C221.132 107.759 220.518 108.227 220.281 108.462C219.927 108.813 219.111 109.657 218.685 110.22C218.26 110.782 217.681 111.04 217.444 111.099L215.494 111.099C214.785 111.099 214.253 111.45 214.075 111.626L210.352 117.075C208.756 117.661 205.351 118.904 204.5 119.185C203.649 119.466 203.437 120.122 203.437 120.415L204.5 128.502C204.382 130.084 204.11 133.635 203.968 135.182C203.827 136.729 204.619 137.584 205.032 137.819C205.919 137.936 208.082 138.1 209.642 137.819C211.203 137.537 218.094 135.358 221.345 134.303C222.232 135.182 224.43 137.397 226.133 139.225C227.835 141.053 229.088 141.393 229.502 141.334C231.275 141.276 235.176 141.088 236.594 140.807C238.013 140.526 238.604 139.635 238.722 139.225Z" fill="#FFB164"/>
<path fill-rule="evenodd" clip-rule="evenodd" d="M140.313 144.323C142.854 143.854 148.044 142.6 148.469 141.334C148.895 140.069 150.656 134.596 151.484 132.017C152.015 131.549 153.221 130.435 153.789 129.732C153.942 129.542 154.136 129.352 154.347 129.147C155.113 128.4 156.094 127.443 156.094 125.513L156.094 117.075C156.33 116.548 157.051 115.177 158.044 113.911C159.037 112.646 162.595 106.469 164.25 103.54C164.605 102.075 165.101 98.7231 164.25 97.0355L160.349 89.3008C158.789 86.2069 152.725 81.5661 149.888 79.6324C149.846 79.6556 149.805 79.6782 149.764 79.7004C148.28 80.5201 148.003 80.6732 143.859 80.1598C142.517 79.9935 141.546 80.002 140.755 80.0089C139.039 80.0239 138.177 80.0315 136.235 78.2261C135.97 77.98 135.717 77.7417 135.475 77.5123C133.116 75.2842 131.665 73.9134 128.61 74.7103C125.915 75.4135 121.458 76.8784 119.567 77.5229C118.267 79.0464 115.383 82.9372 114.248 86.3124C113.113 89.6875 113.775 93.1096 114.248 94.3987L118.149 104.243C119.331 105.356 122.511 107.583 125.773 107.583C129.036 107.583 131.624 108.169 132.511 108.462L135.348 128.502L138.54 143.971C138.562 144.206 138.949 144.604 140.313 144.323ZM120.808 59.5925C121.943 61.4207 124.236 64.3388 125.241 65.5693C126.026 64.3795 128.295 62 131.092 62C132.817 62 137.221 61.1199 140.755 62C144.386 62.9042 150.569 64.0407 152.378 64.5145C156.406 65.5693 159.64 65.8479 164.25 64.5145C168.86 63.1812 181.175 61.5267 183.223 66.0967C185.271 70.6667 185.538 75.4135 183.223 76.8198C181.37 77.9448 179.378 79.5152 178.613 80.1598L183.223 91.9376C183.577 92.465 184.748 93.3088 186.592 92.465C188.897 91.4102 191.734 89.8281 192.798 88.4218C193.649 87.2968 195.871 85.1405 196.876 84.2029L206.096 87.3671C206.687 87.5429 208.437 87.6132 210.706 86.4882C212.976 85.3631 220.281 81.0973 223.65 79.105C224.123 78.4019 225.069 76.6088 225.069 75.0619L225.069 69.085C225.778 67.9717 227.374 65.499 228.083 64.5145C228.792 63.5301 231.452 60.237 232.693 58.7135C233.107 57.776 233.864 55.6196 233.58 54.4946C233.296 53.3695 232.871 52.0335 232.693 51.5062C234.112 50.0412 237.764 46.9708 241.027 46.4083C241.382 48.3419 242.197 52.4906 242.623 53.6156C243.155 55.0219 245.637 54.3188 247.056 52.9125C248.19 51.7874 256.158 44.2402 260 40.6072C260.827 39.9041 262.446 37.7946 262.305 34.982C263.664 35.3336 266.56 35.8258 267.269 34.982C267.979 34.1382 269.102 32.6381 269.575 31.9936C269.988 31.1146 270.248 28.8997 267.979 27.0715C265.709 25.2433 260.295 21.1533 257.872 19.3368C256.749 18.6922 253.545 17.2273 249.715 16.5241C245.885 15.821 242.209 14.7077 240.85 14.2389C239.904 14.1803 237.41 13.3248 234.998 10.3715C232.587 7.41827 229.502 4.21891 228.26 2.98839C227.788 2.16804 225.849 0.77345 221.877 1.75787C217.905 2.74229 211.711 4.86349 209.111 5.80105C207.574 6.21122 203.862 7.03157 201.309 7.03157C198.117 7.03157 196.699 7.91051 195.28 9.84419C195.123 10.0584 194.968 10.2792 194.81 10.5047C193.539 12.3146 192.051 14.4337 187.478 15.9968C183.365 17.4031 169.688 22.5596 163.364 24.962C162.654 25.255 160.456 25.6652 157.335 24.962C154.214 24.2589 151.543 23.4971 150.597 23.2042C149.415 22.8526 146.341 22.7119 143.504 24.962C140.667 27.2121 134.048 32.5796 131.092 34.982C129.91 36.2125 127.901 39.3064 129.319 41.8378C130.738 44.3691 132.629 47.2286 133.398 48.342C134.107 49.3381 135.986 50.7327 137.83 48.342C139.674 45.9512 141.199 45.002 141.731 44.8262C141.377 47.1114 140.455 51.8226 139.604 52.3851C137.239 52.3265 131.873 52.3851 129.319 53.0883C126.766 53.7914 122.581 55.3735 120.808 56.0767C120.335 56.4869 119.673 57.7643 120.808 59.5925Z" fill="#FFB164"/>
<path d="M160.349 89.3008C162.654 88.7148 167.584 87.2968 168.86 86.3124C170.137 85.3279 175.894 81.8005 178.613 80.1598C179.378 79.5152 181.37 77.9448 183.223 76.8198C185.538 75.4135 185.271 70.6667 183.223 66.0967C181.175 61.5267 168.86 63.1812 164.25 64.5145C159.64 65.8479 156.406 65.5693 152.378 64.5145C150.569 64.0407 144.386 62.9042 140.755 62C137.221 61.1199 132.817 62 131.092 62C128.295 62 126.026 64.3795 125.241 65.5693C125.123 65.8037 125.773 66.2373 129.319 66.0967C133.752 65.9209 133.93 64.8661 137.83 67.3272C140.951 69.296 148.233 74.4759 151.484 76.8198C151.484 77.4643 151.164 78.9293 149.888 79.6324C152.725 81.5661 158.789 86.2069 160.349 89.3008Z" fill="#F6311F"/>
<path fill-rule="evenodd" clip-rule="evenodd" d="M70.9831 155.222C71.0422 156.394 71.5506 158.878 73.1109 159.441C75.0614 160.144 77.0118 160.495 76.6572 158.562C76.3026 156.628 75.7706 152.761 76.6572 149.948C77.5437 147.135 80.5581 142.213 82.8632 139.576C84.7072 137.467 91.7879 128.267 95.0978 123.931C96.5163 121.529 99.3888 115.775 99.5306 111.977C99.6725 108.18 100.063 104.301 100.24 102.836C100.299 102.075 99.5661 100.516 96.1617 100.375C95.5725 100.351 95.0038 100.333 94.4568 100.317C91.053 100.211 88.4936 100.132 87.1187 98.6175C85.842 97.2112 81.5038 92.4063 79.4942 90.1797C79.1987 89.6523 77.9338 88.6327 75.2387 88.7733C72.5435 88.914 68.5599 88.8319 66.9049 88.7733C66.3139 88.7148 64.8835 88.246 63.8906 86.8397C62.8976 85.4334 61.7037 83.6755 61.2309 82.9723C60.6989 82.6794 59.3159 82.0231 58.0392 81.7418C56.7626 81.4606 55.2613 81.2731 54.6703 81.2144C54.1383 81.1558 53.0035 80.7222 52.7198 79.4566C52.4361 78.1909 52.247 76.5853 52.1879 75.9408C50.9337 76.6272 47.9252 78 45.9252 78C43.9252 78 41.0919 78.7044 39.9252 79.0565C40.5169 79.9413 41.0252 80.6991 41.3718 81.2144C42.3174 81.8004 44.8826 83.2185 47.5777 84.2029C48.2175 84.4366 48.9404 84.683 49.7076 84.9444C52.9802 86.0597 57.0585 87.4495 58.9258 89.3008C60.7699 91.129 63.004 92.8752 63.8906 93.5197C64.3043 93.9299 64.9545 95.4534 64.2452 98.266C63.3587 101.782 63.7133 104.594 64.2452 106.528C64.6708 108.075 66.5503 112.681 67.4369 114.79C68.1461 115.669 69.7774 117.568 70.6285 118.13C71.6924 118.833 72.047 120.591 71.8697 121.822C71.7279 122.806 70.9831 131.139 70.6285 135.182C70.3921 138.112 69.9193 144.569 69.9193 146.96C69.9193 149.244 70.4413 152.144 70.7634 153.934C70.8627 154.485 70.943 154.932 70.9831 155.222ZM30.9816 61C33.1295 58.5 37.9252 53.1 39.9252 51.5C42.4252 49.5 45.9252 47 49.4252 47.9904C52.2252 48.7827 57.8188 44.9936 60.2656 43C58.6994 41.8394 56.1922 39.261 54.8476 37.7946C54.6112 37.2673 54.422 35.5094 55.5569 32.6968C56.6917 29.8841 57.8028 28.009 58.2166 27.4231C59.9897 26.9543 63.6069 25.9113 63.8906 25.4894C64.2452 24.962 63.1813 14.2389 61.9401 11.7779C60.9472 9.80903 58.5712 10.9575 57.5073 11.7779L55.5569 13.0084C55.084 13.2428 53.961 13.6412 53.2518 13.36C53.019 13.2676 52.8351 13.139 52.6583 13.0153C52.162 12.668 51.7223 12.3603 50.4148 13.0084C48.6416 13.8873 47.4004 14.0631 44.2088 13.36C41.6555 12.7974 33.5699 10.1958 29.8464 8.96524C29.1962 8.67226 27.6831 7.6644 26.832 5.97683C26.6419 5.59989 26.4631 5.16682 26.2744 4.70971C25.4071 2.60873 24.3302 1.0635e-06 20.9807 9.17095e-07C17.7181 7.74483e-07 12.7651 0.703157 10.6965 1.05473C9.6917 1.40631 7.11474 2.88294 4.84513 5.97683C2.57551 9.07071 0.826015 11.6021 0.234969 12.481C0.0576555 12.8912 -0.190584 14.1334 0.234969 15.821C0.660522 17.5086 1.35796 24.7276 1.65348 28.1262C1.8308 28.7708 2.36274 30.2357 3.07199 30.9389C3.78125 31.642 7.74126 34.2789 9.6326 35.5094C10.2828 35.7438 11.7604 36.0719 12.4696 35.5094C13.1789 34.9469 14.5383 34.2203 15.1293 33.9273C15.484 33.6929 16.406 33.5405 17.2571 34.8062C18.1082 36.0719 19.8577 38.8494 20.6261 40.0799C21.5126 40.9002 23.6049 42.8222 24.8816 43.9472C26.1582 45.0723 28.3688 47.1115 29.3144 47.9904C29.7022 51.4508 30.4797 57.9859 30.9816 61Z" fill="#FFB164"/>
<path d="M52.1879 75.9408C52.247 75.2962 52.8262 73.9368 54.6703 73.6555C56.5143 73.3743 58.2757 73.5383 58.9258 73.6555C59.8715 73.6556 62.1175 73.1985 63.536 71.3703C64.9545 69.5421 69.0918 64.8661 70.9831 62.7567L81.9766 55.5493C83.0996 54.9048 85.1328 52.807 84.2817 49.5725C83.2178 45.5294 78.9623 32.1694 78.0757 30.9389C77.3664 29.9544 70.333 28.7708 66.9049 28.302L66.9049 39.5525C65.4864 40.9002 62.4012 43.5957 61.4082 43.5957C61.1682 43.5957 60.7647 43.3698 60.2656 43C57.8188 44.9936 52.2252 48.7827 49.4252 47.9904C45.9252 47 42.4252 49.5 39.9252 51.5C37.9252 53.1 33.1295 58.5 30.9816 61C31.0916 61.6607 31.1884 62.1522 31.2649 62.4051C31.7968 64.163 33.57 69.4367 35.875 72.9524C37.1184 74.8489 38.7004 77.2249 39.9252 79.0565C41.0919 78.7044 43.9252 78 45.9252 78C47.9252 78 50.9337 76.6272 52.1879 75.9408Z" fill="#F6311F"/>
</svg>
