<?xml version="1.0" encoding="UTF-8"?>
<svg xmlns="http://www.w3.org/2000/svg" viewBox="0 0 194.65 262.54">
  <defs>
    <style>
      .c {
        fill: #fff;
      }

      .d {
        fill: none;
        stroke: #c3b067;
        stroke-width: 4px;
      }

      .e {
        fill: #222;
      }

      .f {
        fill: #ffc9e2;
      }

      .g {
        fill: #24d298;
      }

      .h {
        fill: #4a9e41;
      }

      .i {
        fill: #5dc15c;
      }
    </style>
  </defs>
  <g id="a" data-name="Layer 5">
    <path class="d" d="m18.34,70.03c3.04,9.95,9.43,31.34,10.65,37.38"/>
    <path class="d" d="m26.27,68.65c1.54,10.38,4.69,32.67,5.01,38.85"/>
    <path class="d" d="m59.71,26.82c2.33,23.89,6.63,72.77,5.17,77.16"/>
    <path class="d" d="m50.88,29.56c2.33,23.89,6.63,72.77,5.17,77.16"/>
    <path class="d" d="m72.96,29.18l4.69,74.75"/>
    <path class="d" d="m55.81,34.04l9.42,74.31"/>
    <path class="d" d="m112.33,20.3l-7.91,85.39"/>
    <path class="d" d="m106.55,49.22l-7.91,55.86"/>
    <path class="d" d="m83.44,11.57l7.91,91.69"/>
    <path class="d" d="m80.58,68.54l2.67,35.9"/>
    <path class="d" d="m129.67,10.35l-5.78,92.59"/>
    <path class="d" d="m171.5,66.34l-5.7,36.82"/>
    <path class="d" d="m166.17,41.32l-10.34,63.6"/>
    <path class="d" d="m144.88,33.43l-6.08,70.43"/>
    <path class="h" d="m31.19,66.82c4.68-7.96-3.81-16.75-10.82-15.71-13.14,1.94-16.13,12.43-12.68,18.6,3.45,6.17,17.65,7.07,23.5-2.89Z"/>
    <path class="h" d="m82.88,72.69c3.83-8.4-5.52-16.26-12.38-14.51-12.87,3.28-14.76,14.03-10.69,19.81,4.06,5.78,18.29,5.21,23.07-5.29Z"/>
    <path class="h" d="m166.29,66.03c-.55-9.22-12.5-11.8-17.75-7.05-9.84,8.91-6.47,19.29-.17,22.5,6.3,3.21,18.61-3.93,17.92-15.45Z"/>
    <path class="h" d="m118.23,53.89c-.55-9.21-12.5-11.8-17.75-7.05-9.84,8.91-6.47,19.29-.17,22.5,6.3,3.21,18.61-3.93,17.92-15.45Z"/>
    <path class="h" d="m64.81,84.22c3.83-8.4-5.52-16.26-12.38-14.51-12.87,3.28-14.76,14.03-10.69,19.81,4.06,5.78,18.29,5.21,23.07-5.29Z"/>
    <path class="h" d="m149.13,88.59c3.83-8.4-5.52-16.26-12.38-14.51-12.87,3.28-14.75,14.03-10.69,19.81,4.07,5.78,18.29,5.21,23.07-5.29Z"/>
    <path class="h" d="m65.85,38.69c3.83-8.4-5.52-16.26-12.38-14.51-12.87,3.28-14.76,14.03-10.69,19.81,4.06,5.78,18.29,5.21,23.07-5.29Z"/>
    <path class="h" d="m92.61,42.33c3.83-8.4-5.52-16.26-12.38-14.51-12.87,3.28-14.76,14.03-10.69,19.81,4.06,5.78,18.29,5.21,23.07-5.29Z"/>
    <path class="h" d="m117.99,28.37c2.45-5.38-3.54-10.42-7.93-9.3-8.25,2.1-9.45,8.99-6.85,12.69,2.6,3.7,11.72,3.34,14.78-3.39Z"/>
    <path class="h" d="m28.41,66.25c-.35-9.37,11.47-13.17,17.25-8.88,10.83,8.04,8.45,18.87,2.4,22.74-6.05,3.87-19.21-2.14-19.65-13.86Z"/>
    <path class="h" d="m163.66,67.1c-5.52-7.6,2.2-17.31,9.39-16.96,13.49.67,17.54,10.99,14.67,17.56-2.88,6.57-17.16,8.89-24.05-.61Z"/>
    <path class="h" d="m115.6,54.95c-5.52-7.6,2.19-17.31,9.39-16.96,13.49.67,17.54,10.99,14.67,17.56-2.88,6.57-17.16,8.89-24.05-.61Z"/>
    <path class="h" d="m61.98,83.94c-1.32-9.29,10.05-14.28,16.24-10.61,11.61,6.88,10.36,17.9,4.73,22.37-5.62,4.47-19.33-.15-20.98-11.76Z"/>
    <path class="h" d="m146.31,88.3c-1.32-9.29,10.05-14.28,16.24-10.61,11.61,6.88,10.36,17.9,4.74,22.37-5.62,4.47-19.33-.15-20.98-11.76Z"/>
    <path class="h" d="m80.68,70.39c-1.32-9.29,10.05-14.28,16.24-10.61,11.61,6.88,10.36,17.9,4.73,22.37-5.62,4.47-19.33-.15-20.98-11.76Z"/>
    <path class="i" d="m127.54,71.99c2.59-8.86-7.78-15.31-14.33-12.6-12.27,5.08-12.6,15.98-7.75,21.12s18.85,2.56,22.08-8.52Z"/>
    <path class="i" d="m24.82,62.66c.93-9.19-10.45-13.64-16.39-9.79-11.14,7.23-9.47,18.01-3.77,22.18,5.71,4.17,19-.91,20.16-12.39Z"/>
    <path class="i" d="m54.48,25.78c.96-9.21-10.24-13.62-16.12-9.73-11.02,7.29-9.42,18.09-3.82,22.24,5.61,4.15,18.74-1,19.94-12.51Z"/>
    <path class="i" d="m131.61,47.36c1.86-7.23-6.69-12.17-11.91-9.81-9.78,4.43-9.76,13.25-5.71,17.28,4.05,4.03,15.3,1.57,17.62-7.47Z"/>
    <path class="i" d="m110.92,51c1.86-7.23-6.69-12.17-11.91-9.81-9.78,4.43-9.76,13.25-5.71,17.28,4.05,4.03,15.3,1.57,17.62-7.47Z"/>
    <path class="i" d="m72.84,71.87c1.71-9.07-9.25-14.48-15.5-11.14-11.71,6.26-10.97,17.14-5.64,21.78s19.01.7,21.14-10.64Z"/>
    <path class="i" d="m172.1,62.64c3.51-8.54-6.12-16.05-12.92-14.04-12.74,3.76-14.22,14.57-9.94,20.19,4.28,5.62,18.47,4.53,22.86-6.15Z"/>
    <path class="i" d="m124.7,72.11c-2.63-9.01,7.91-15.56,14.56-12.81,12.47,5.16,12.81,16.24,7.88,21.47-4.93,5.22-19.15,2.6-22.44-8.66Z"/>
    <path class="i" d="m22.05,63.29c-4.23-8.38,4.94-16.74,11.98-15.24,13.21,2.81,15.56,13.64,11.67,19.67-3.89,6.03-18.36,6.04-23.65-4.43Z"/>
    <path class="i" d="m56.73,51.64c-3.42-6.77,3.99-13.54,9.69-12.33,10.68,2.27,12.58,11.03,9.43,15.91-3.15,4.88-14.84,4.88-19.12-3.58Z"/>
    <path class="i" d="m64.03,31.6c-3.42-6.77,3.99-13.54,9.69-12.33,10.68,2.27,12.58,11.03,9.43,15.91-3.15,4.88-14.84,4.88-19.12-3.58Z"/>
    <path class="i" d="m121.7,12.65c-3.32-6.57,3.87-13.12,9.39-11.95,10.35,2.2,12.19,10.69,9.15,15.42-3.05,4.73-14.39,4.73-18.54-3.47Z"/>
    <path class="i" d="m130.5,14.47c3.32-6.57-3.87-13.12-9.39-11.95-10.35,2.2-12.19,10.69-9.14,15.42,3.05,4.73,14.39,4.73,18.54-3.47Z"/>
    <path class="i" d="m81.37,13.86c-3.32-6.57,3.87-13.12,9.39-11.95,10.35,2.2,12.19,10.69,9.15,15.42-3.05,4.73-14.39,4.73-18.54-3.47Z"/>
    <path class="i" d="m88.96,12.88c2.92-5.63-2.85-10.98-7.45-9.84-8.63,2.13-10.38,9.36-7.98,13.27,2.4,3.91,11.78,3.62,15.43-3.43Z"/>
    <path class="i" d="m102.22,29.88c-7.59-.4-9.78-10.19-5.9-14.52,7.28-8.12,15.84-5.41,18.52-.26,2.68,5.15-3.13,15.28-12.62,14.78Z"/>
    <path class="i" d="m70.03,72.27c-3.5-8.71,6.34-16.26,13.23-14.17,12.92,3.92,14.34,14.91,9.95,20.59-4.39,5.68-18.81,4.46-23.18-6.42Z"/>
    <path class="i" d="m169.27,62.46c-1.66-9.23,9.51-14.64,15.84-11.2,11.86,6.45,11.02,17.5,5.57,22.18-5.45,4.68-19.32.57-21.4-10.98Z"/>
    <path class="i" d="m158.92,38.11c-2.63-9.01,7.91-15.56,14.56-12.81,12.47,5.16,12.81,16.24,7.88,21.47-4.93,5.22-19.15,2.6-22.44-8.66Z"/>
    <path class="i" d="m151.21,16.72c9.09,2.39,9.29,14.79,3.5,19.06-10.86,8.01-20.55,2.58-22.49-4.32-1.95-6.91,7.64-17.72,19-14.73Z"/>
    <path class="g" d="m17.38,102.39h160.54c10.17,0,17.76,9.36,15.65,19.3l-27.02,128c-1.56,7.4-8.09,12.7-15.65,12.7H44.41c-7.56,0-14.09-5.3-15.65-12.7L1.73,121.69c-2.1-9.95,5.49-19.3,15.65-19.3Z"/>
  </g>
  <g id="b" data-name="Layer 7">
    <path class="f" d="m56.1,202.01c6.51-1.95,7.52-8.93,7.21-12.18.59-6.3-2.77-9.56-4.25-10.87-.92-.75-3.18-2.51-9.99-2.81-6.81-.3-10.36,2.75-11.28,4.31-1.11,1.5-3.11,6-2.22,11.99.89,6,5.06,8.87,7.03,9.56,1.79.81,6.99,1.95,13.5,0Z"/>
    <path class="f" d="m138.6,202.01c-6.51-1.95-7.52-8.93-7.21-12.18-.59-6.3,2.77-9.56,4.25-10.87.93-.75,3.18-2.51,9.99-2.81,6.81-.3,10.36,2.75,11.28,4.31,1.11,1.5,3.11,6,2.22,11.99-.89,6-5.06,8.87-7.03,9.56-1.79.81-6.99,1.95-13.5,0Z"/>
    <path class="e" d="m151.26,174.78c0,8.19-6.64,14.83-14.82,14.83s-14.82-6.64-14.82-14.83,6.64-14.83,14.82-14.83,14.82,6.64,14.82,14.83Z"/>
    <path class="c" d="m137.92,173.11c0,3.17-2.57,5.74-5.74,5.74s-5.74-2.57-5.74-5.74,2.57-5.75,5.74-5.75,5.74,2.57,5.74,5.75Z"/>
    <path class="c" d="m144.59,168.85c0,1.64-1.33,2.96-2.96,2.96s-2.96-1.33-2.96-2.96,1.33-2.97,2.96-2.97,2.96,1.33,2.96,2.97Z"/>
    <path class="c" d="m143.11,175.15c0,1.02-.83,1.85-1.85,1.85s-1.85-.83-1.85-1.85.83-1.85,1.85-1.85,1.85.83,1.85,1.85Z"/>
    <path class="e" d="m73.08,174.78c0,8.19-6.64,14.83-14.82,14.83s-14.82-6.64-14.82-14.83,6.64-14.83,14.82-14.83,14.82,6.64,14.82,14.83Z"/>
    <path class="c" d="m59.74,173.11c0,3.17-2.57,5.74-5.74,5.74s-5.74-2.57-5.74-5.74,2.57-5.75,5.74-5.75,5.74,2.57,5.74,5.75Z"/>
    <path class="c" d="m66.41,168.85c0,1.64-1.33,2.96-2.96,2.96s-2.96-1.33-2.96-2.96,1.33-2.97,2.96-2.97,2.96,1.33,2.96,2.97Z"/>
    <path class="c" d="m64.93,175.15c0,1.02-.83,1.85-1.85,1.85s-1.85-.83-1.85-1.85.83-1.85,1.85-1.85,1.85.83,1.85,1.85Z"/>
    <ellipse cx="97.08" cy="199.85" rx="6.47" ry="8.09"/>
  </g>
</svg>