<?xml version="1.0" encoding="UTF-8"?>
<svg xmlns="http://www.w3.org/2000/svg" viewBox="0 0 194.65 262.54">
  <defs>
    <style>
      .c {
        fill: #fff;
      }

      .d {
        fill: #69ad4d;
      }

      .e, .f {
        fill: #222;
      }

      .g {
        fill: #ffc9e2;
      }

      .f {
        fill-rule: evenodd;
      }

      .h {
        fill: #579a3b;
      }

      .i {
        fill: #7ebf62;
      }

      .j {
        fill: #438e75;
      }

      .k {
        fill: none;
        stroke: #99c885;
        stroke-width: 4px;
      }
    </style>
  </defs>
  <g id="a" data-name="Layer 2">
    <path class="k" d="m18.34,70.03c3.04,9.95,9.43,31.34,10.65,37.38"/>
    <path class="k" d="m26.27,68.65c1.54,10.38,4.69,32.67,5.01,38.85"/>
    <path class="k" d="m59.71,26.82c2.33,23.89,6.63,72.77,5.17,77.16"/>
    <path class="k" d="m50.88,29.56c2.33,23.89,6.63,72.77,5.17,77.16"/>
    <path class="k" d="m72.96,29.18l4.69,74.75"/>
    <path class="k" d="m55.81,34.04l9.42,74.31"/>
    <path class="k" d="m112.33,20.3l-7.91,85.39"/>
    <path class="k" d="m106.55,49.22l-7.91,55.86"/>
    <path class="k" d="m83.44,11.57l7.91,91.69"/>
    <path class="k" d="m80.58,68.54l2.67,35.9"/>
    <path class="k" d="m129.67,10.35l-5.78,92.59"/>
    <path class="k" d="m171.5,66.34l-5.7,36.82"/>
    <path class="k" d="m166.17,41.32l-10.34,63.6"/>
    <path class="k" d="m144.88,33.43l-6.08,70.43"/>
    <path class="d" d="m31.19,66.82c4.68-7.96-3.81-16.75-10.82-15.71-13.14,1.94-16.13,12.43-12.68,18.6,3.45,6.17,17.65,7.07,23.5-2.89Z"/>
    <path class="d" d="m82.88,72.69c3.83-8.4-5.52-16.26-12.38-14.51-12.87,3.28-14.76,14.03-10.69,19.81,4.06,5.78,18.29,5.21,23.07-5.29Z"/>
    <path class="d" d="m166.29,66.03c-.55-9.22-12.5-11.8-17.75-7.05-9.84,8.91-6.47,19.29-.17,22.5,6.3,3.21,18.61-3.93,17.92-15.45Z"/>
    <path class="d" d="m118.23,53.89c-.55-9.21-12.5-11.8-17.75-7.05-9.84,8.91-6.47,19.29-.17,22.5,6.3,3.21,18.61-3.93,17.92-15.45Z"/>
    <path class="d" d="m64.81,84.22c3.83-8.4-5.52-16.26-12.38-14.51-12.87,3.28-14.76,14.03-10.69,19.81,4.06,5.78,18.29,5.21,23.07-5.29Z"/>
    <path class="d" d="m149.13,88.59c3.83-8.4-5.52-16.26-12.38-14.51-12.87,3.28-14.75,14.03-10.69,19.81,4.07,5.78,18.29,5.21,23.07-5.29Z"/>
    <path class="d" d="m65.85,38.69c3.83-8.4-5.52-16.26-12.38-14.51-12.87,3.28-14.76,14.03-10.69,19.81,4.06,5.78,18.29,5.21,23.07-5.29Z"/>
    <path class="h" d="m92.61,42.33c3.83-8.4-5.52-16.26-12.38-14.51-12.87,3.28-14.76,14.03-10.69,19.81,4.06,5.78,18.29,5.21,23.07-5.29Z"/>
    <path class="h" d="m117.99,28.37c2.45-5.38-3.54-10.42-7.93-9.3-8.25,2.1-9.45,8.99-6.85,12.69,2.6,3.7,11.72,3.34,14.78-3.39Z"/>
    <path class="d" d="m28.41,66.25c-.35-9.37,11.47-13.17,17.25-8.88,10.83,8.04,8.45,18.87,2.4,22.74-6.05,3.87-19.21-2.14-19.65-13.86Z"/>
    <path class="d" d="m163.66,67.1c-5.52-7.6,2.2-17.31,9.39-16.96,13.49.67,17.54,10.99,14.67,17.56-2.88,6.57-17.16,8.89-24.05-.61Z"/>
    <path class="d" d="m115.6,54.95c-5.52-7.6,2.19-17.31,9.39-16.96,13.49.67,17.54,10.99,14.67,17.56-2.88,6.57-17.16,8.89-24.05-.61Z"/>
    <path class="d" d="m61.98,83.94c-1.32-9.29,10.05-14.28,16.24-10.61,11.61,6.88,10.36,17.9,4.73,22.37-5.62,4.47-19.33-.15-20.98-11.76Z"/>
    <path class="d" d="m146.31,88.3c-1.32-9.29,10.05-14.28,16.24-10.61,11.61,6.88,10.36,17.9,4.74,22.37-5.62,4.47-19.33-.15-20.98-11.76Z"/>
    <path class="d" d="m80.68,70.39c-1.32-9.29,10.05-14.28,16.24-10.61,11.61,6.88,10.36,17.9,4.73,22.37-5.62,4.47-19.33-.15-20.98-11.76Z"/>
    <path class="i" d="m127.54,71.99c2.59-8.86-7.78-15.31-14.33-12.6-12.27,5.08-12.6,15.98-7.75,21.12s18.85,2.56,22.08-8.52Z"/>
    <path class="i" d="m24.82,62.66c.93-9.19-10.45-13.64-16.39-9.79-11.14,7.23-9.47,18.01-3.77,22.18,5.71,4.17,19-.91,20.16-12.39Z"/>
    <path class="i" d="m54.48,25.78c.96-9.21-10.24-13.62-16.12-9.73-11.02,7.29-9.42,18.09-3.82,22.24,5.61,4.15,18.74-1,19.94-12.51Z"/>
    <path class="i" d="m131.61,47.36c1.86-7.23-6.69-12.17-11.91-9.81-9.78,4.43-9.76,13.25-5.71,17.28,4.05,4.03,15.3,1.57,17.62-7.47Z"/>
    <path class="i" d="m110.92,51c1.86-7.23-6.69-12.17-11.91-9.81-9.78,4.43-9.76,13.25-5.71,17.28,4.05,4.03,15.3,1.57,17.62-7.47Z"/>
    <path class="i" d="m72.84,71.87c1.71-9.07-9.25-14.48-15.5-11.14-11.71,6.26-10.97,17.14-5.64,21.78s19.01.7,21.14-10.64Z"/>
    <path class="i" d="m172.1,62.64c3.51-8.54-6.12-16.05-12.92-14.04-12.74,3.76-14.22,14.57-9.94,20.19,4.28,5.62,18.47,4.53,22.86-6.15Z"/>
    <path class="i" d="m124.7,72.11c-2.63-9.01,7.91-15.56,14.56-12.81,12.47,5.16,12.81,16.24,7.88,21.47-4.93,5.22-19.15,2.6-22.44-8.66Z"/>
    <path class="i" d="m22.05,63.29c-4.23-8.38,4.94-16.74,11.98-15.24,13.21,2.81,15.56,13.64,11.67,19.67-3.89,6.03-18.36,6.04-23.65-4.43Z"/>
    <path class="i" d="m56.73,51.64c-3.42-6.77,3.99-13.54,9.69-12.33,10.68,2.27,12.58,11.03,9.43,15.91-3.15,4.88-14.84,4.88-19.12-3.58Z"/>
    <path class="i" d="m64.03,31.6c-3.42-6.77,3.99-13.54,9.69-12.33,10.68,2.27,12.58,11.03,9.43,15.91-3.15,4.88-14.84,4.88-19.12-3.58Z"/>
    <path class="i" d="m121.7,12.65c-3.32-6.57,3.87-13.12,9.39-11.95,10.35,2.2,12.19,10.69,9.15,15.42-3.05,4.73-14.39,4.73-18.54-3.47Z"/>
    <path class="i" d="m130.5,14.47c3.32-6.57-3.87-13.12-9.39-11.95-10.35,2.2-12.19,10.69-9.14,15.42,3.05,4.73,14.39,4.73,18.54-3.47Z"/>
    <path class="i" d="m81.37,13.86c-3.32-6.57,3.87-13.12,9.39-11.95,10.35,2.2,12.19,10.69,9.15,15.42-3.05,4.73-14.39,4.73-18.54-3.47Z"/>
    <path class="i" d="m88.96,12.88c2.92-5.63-2.85-10.98-7.45-9.84-8.63,2.13-10.38,9.36-7.98,13.27,2.4,3.91,11.78,3.62,15.43-3.43Z"/>
    <path class="i" d="m102.22,29.88c-7.59-.4-9.78-10.19-5.9-14.52,7.28-8.12,15.84-5.41,18.52-.26,2.68,5.15-3.13,15.28-12.62,14.78Z"/>
    <path class="i" d="m70.03,72.27c-3.5-8.71,6.34-16.26,13.23-14.17,12.92,3.92,14.34,14.91,9.95,20.59-4.39,5.68-18.81,4.46-23.18-6.42Z"/>
    <path class="i" d="m169.27,62.46c-1.66-9.23,9.51-14.64,15.84-11.2,11.86,6.45,11.02,17.5,5.57,22.18-5.45,4.68-19.32.57-21.4-10.98Z"/>
    <path class="i" d="m158.92,38.11c-2.63-9.01,7.91-15.56,14.56-12.81,12.47,5.16,12.81,16.24,7.88,21.47-4.93,5.22-19.15,2.6-22.44-8.66Z"/>
    <path class="i" d="m151.21,16.72c9.09,2.39,9.29,14.79,3.5,19.06-10.86,8.01-20.55,2.58-22.49-4.32-1.95-6.91,7.64-17.72,19-14.73Z"/>
    <path class="j" d="m17.38,102.39h160.54c10.17,0,17.76,9.36,15.65,19.3l-27.02,128c-1.56,7.4-8.09,12.7-15.65,12.7H44.41c-7.56,0-14.09-5.3-15.65-12.7L1.73,121.69c-2.1-9.95,5.49-19.3,15.65-19.3Z"/>
  </g>
  <g id="b" data-name="Layer 8">
    <path class="g" d="m56.24,201.71c6.51-1.88,7.52-8.63,7.21-11.77.59-6.08-2.77-9.23-4.25-10.5-.92-.72-3.18-2.43-9.99-2.72-6.81-.29-10.36,2.66-11.28,4.16-1.11,1.45-3.11,5.79-2.22,11.59.89,5.79,5.06,8.57,7.03,9.23,1.79.78,6.99,1.88,13.5,0Z"/>
    <path class="g" d="m138.74,201.71c-6.51-1.88-7.52-8.63-7.21-11.77-.59-6.08,2.77-9.23,4.25-10.5.93-.72,3.18-2.43,9.99-2.72,6.81-.29,10.36,2.66,11.28,4.16,1.11,1.45,3.11,5.79,2.22,11.59s-5.06,8.57-7.03,9.23c-1.79.78-6.99,1.88-13.5,0Z"/>
    <path class="f" d="m144.46,173.52c1.95,3.69,2.72,8.29,2.8,11.39.03,1.11.98,1.98,2.13,1.95,1.15-.03,2.05-.95,2.02-2.06-.09-3.48-.94-8.71-3.25-13.1-2.34-4.43-6.4-8.34-12.89-8.09-6.34.25-10.32,3.96-12.64,8.17-2.29,4.15-3.09,8.97-3.16,12.16-.02,1.11.89,2.02,2.03,2.04,1.14.02,2.09-.86,2.11-1.96.06-2.76.77-6.91,2.67-10.36,1.87-3.39,4.73-5.88,9.15-6.05,4.27-.17,7.11,2.25,9.03,5.9Z"/>
    <path class="f" d="m50.53,173.69c-1.95,3.69-2.72,8.29-2.8,11.39-.03,1.11-.98,1.98-2.13,1.95-1.14-.03-2.05-.95-2.02-2.06.09-3.48.94-8.71,3.25-13.1,2.34-4.43,6.4-8.34,12.89-8.09,6.34.25,10.33,3.96,12.64,8.17,2.29,4.15,3.09,8.97,3.16,12.16.02,1.11-.89,2.02-2.03,2.04-1.15.02-2.09-.86-2.11-1.96-.06-2.75-.77-6.91-2.67-10.36-1.87-3.39-4.73-5.88-9.15-6.05-4.27-.17-7.11,2.25-9.03,5.9Z"/>
    <path class="e" d="m80.78,189.73h32.9c1.59-.02,4.86.62,3.39,5.21-1.83,5.73-7.83,9.37-10.71,10.16-2.87.78-4.61,1.3-9.14,1.3s-6.27-.52-9.14-1.3c-2.87-.78-8.88-4.43-10.71-10.16-1.46-4.58,1.7-5.23,3.39-5.21Z"/>
    <path class="c" d="m87.21,202.28c3.09,1.68,7.43,2.55,10.09,2.55s7-.88,10.09-2.55c.89-.48.81-1.64-.11-2.07-2.18-1.01-5.74-2.15-9.98-2.15s-7.8,1.14-9.98,2.15c-.92.43-1,1.59-.11,2.07Z"/>
    <path class="c" d="m82.32,195.71c1.92,1.67,10.91,2.26,15.17,2.35,4.26-.09,13.25-.68,15.17-2.35,1.92-1.67.8-3.3,0-3.91-.62-.17-2.56-.52-5.32-.52h-19.69c-2.77,0-4.7.35-5.32.52-.8.61-1.92,2.24,0,3.91Z"/>
  </g>
</svg>