<?xml version="1.0" encoding="UTF-8"?>
<svg xmlns="http://www.w3.org/2000/svg" viewBox="0 0 194.65 262.54">
  <defs>
    <style>
      .c {
        fill: #fff;
      }

      .d {
        fill: #69ad4d;
      }

      .e {
        fill: #222;
      }

      .f {
        fill: #84d9bd;
      }

      .g {
        fill: #ffc9e2;
      }

      .h {
        fill: #579a3b;
      }

      .i {
        fill: #7ebf62;
      }

      .j {
        fill: none;
        stroke: #99c885;
        stroke-width: 4px;
      }

      .k {
        fill-rule: evenodd;
      }
    </style>
  </defs>
  <g id="a" data-name="Layer 3">
    <path class="j" d="m18.49,70.17c3.04,9.95,9.43,31.34,10.65,37.38"/>
    <path class="j" d="m26.42,68.8c1.54,10.38,4.69,32.67,5.01,38.85"/>
    <path class="j" d="m59.86,26.96c2.33,23.89,6.63,72.77,5.17,77.16"/>
    <path class="j" d="m51.04,29.71c2.33,23.89,6.63,72.77,5.17,77.16"/>
    <path class="j" d="m73.11,29.33l4.69,74.75"/>
    <path class="j" d="m55.97,34.18l9.42,74.31"/>
    <path class="j" d="m112.48,20.45l-7.91,85.39"/>
    <path class="j" d="m106.71,49.36l-7.91,55.86"/>
    <path class="j" d="m83.59,11.72l7.91,91.69"/>
    <path class="j" d="m80.73,68.69l2.67,35.9"/>
    <path class="j" d="m129.82,10.5l-5.78,92.59"/>
    <path class="j" d="m171.65,66.49l-5.7,36.82"/>
    <path class="j" d="m166.33,41.47l-10.34,63.6"/>
    <path class="j" d="m145.03,33.58l-6.08,70.43"/>
    <path class="d" d="m31.34,66.97c4.68-7.96-3.81-16.75-10.82-15.71-13.14,1.94-16.13,12.43-12.68,18.6,3.45,6.17,17.65,7.07,23.5-2.89Z"/>
    <path class="d" d="m83.03,72.84c3.83-8.4-5.52-16.26-12.38-14.51-12.87,3.28-14.76,14.03-10.69,19.81,4.06,5.78,18.29,5.21,23.07-5.29Z"/>
    <path class="d" d="m166.44,66.18c-.55-9.22-12.5-11.8-17.75-7.05-9.84,8.91-6.47,19.29-.17,22.5,6.3,3.21,18.61-3.93,17.92-15.45Z"/>
    <path class="d" d="m118.38,54.04c-.55-9.21-12.5-11.8-17.75-7.05-9.84,8.91-6.47,19.29-.17,22.5,6.3,3.21,18.61-3.93,17.92-15.45Z"/>
    <path class="d" d="m64.96,84.37c3.83-8.4-5.52-16.26-12.38-14.51-12.87,3.28-14.76,14.03-10.69,19.81,4.06,5.78,18.29,5.21,23.07-5.29Z"/>
    <path class="d" d="m149.29,88.73c3.83-8.4-5.52-16.26-12.38-14.51-12.87,3.28-14.75,14.03-10.69,19.81,4.07,5.78,18.29,5.21,23.07-5.29Z"/>
    <path class="d" d="m66,38.84c3.83-8.4-5.52-16.26-12.38-14.51-12.87,3.28-14.76,14.03-10.69,19.81,4.06,5.78,18.29,5.21,23.07-5.29Z"/>
    <path class="h" d="m92.77,42.48c3.83-8.4-5.52-16.26-12.38-14.51-12.87,3.28-14.76,14.03-10.69,19.81,4.06,5.78,18.29,5.21,23.07-5.29Z"/>
    <path class="h" d="m118.15,28.52c2.45-5.38-3.54-10.42-7.93-9.3-8.25,2.1-9.45,8.99-6.85,12.69,2.6,3.7,11.72,3.34,14.78-3.39Z"/>
    <path class="d" d="m28.56,66.4c-.35-9.37,11.47-13.17,17.25-8.88,10.83,8.04,8.45,18.87,2.4,22.74-6.05,3.87-19.21-2.14-19.65-13.86Z"/>
    <path class="d" d="m163.81,67.25c-5.52-7.6,2.2-17.31,9.39-16.96,13.49.67,17.54,10.99,14.67,17.56-2.88,6.57-17.16,8.89-24.05-.61Z"/>
    <path class="d" d="m115.75,55.1c-5.52-7.6,2.19-17.31,9.39-16.96,13.49.67,17.54,10.99,14.67,17.56-2.88,6.57-17.16,8.89-24.05-.61Z"/>
    <path class="d" d="m62.14,84.09c-1.32-9.29,10.05-14.28,16.24-10.61,11.61,6.88,10.36,17.9,4.73,22.37-5.62,4.47-19.33-.15-20.98-11.76Z"/>
    <path class="d" d="m146.46,88.45c-1.32-9.29,10.05-14.28,16.24-10.61,11.61,6.88,10.36,17.9,4.74,22.37-5.62,4.47-19.33-.15-20.98-11.76Z"/>
    <path class="d" d="m80.83,70.54c-1.32-9.29,10.05-14.28,16.24-10.61,11.61,6.88,10.36,17.9,4.73,22.37-5.62,4.47-19.33-.15-20.98-11.76Z"/>
    <path class="i" d="m127.69,72.14c2.59-8.86-7.78-15.31-14.33-12.6-12.27,5.08-12.6,15.98-7.75,21.12s18.85,2.56,22.08-8.52Z"/>
    <path class="i" d="m24.97,62.8c.93-9.19-10.45-13.64-16.39-9.79-11.14,7.23-9.47,18.01-3.77,22.18,5.71,4.17,19-.91,20.16-12.39Z"/>
    <path class="i" d="m54.63,25.93c.96-9.21-10.24-13.62-16.12-9.73-11.02,7.29-9.42,18.09-3.82,22.24,5.61,4.15,18.74-1,19.94-12.51Z"/>
    <path class="i" d="m131.76,47.51c1.86-7.23-6.69-12.17-11.91-9.81-9.78,4.43-9.76,13.25-5.71,17.28,4.05,4.03,15.3,1.57,17.62-7.47Z"/>
    <path class="i" d="m111.08,51.15c1.86-7.23-6.69-12.17-11.91-9.81-9.78,4.43-9.76,13.25-5.71,17.28,4.05,4.03,15.3,1.57,17.62-7.47Z"/>
    <path class="i" d="m72.99,72.02c1.71-9.07-9.25-14.48-15.5-11.14-11.71,6.26-10.97,17.14-5.64,21.78s19.01.7,21.14-10.64Z"/>
    <path class="i" d="m172.25,62.79c3.51-8.54-6.12-16.05-12.92-14.04-12.74,3.76-14.22,14.57-9.94,20.19,4.28,5.62,18.47,4.53,22.86-6.15Z"/>
    <path class="i" d="m124.85,72.26c-2.63-9.01,7.91-15.56,14.56-12.81,12.47,5.16,12.81,16.24,7.88,21.47-4.93,5.22-19.15,2.6-22.44-8.66Z"/>
    <path class="i" d="m22.2,63.44c-4.23-8.38,4.94-16.74,11.98-15.24,13.21,2.81,15.56,13.64,11.67,19.67-3.89,6.03-18.36,6.04-23.65-4.43Z"/>
    <path class="i" d="m56.88,51.79c-3.42-6.77,3.99-13.54,9.69-12.33,10.68,2.27,12.58,11.03,9.43,15.91-3.15,4.88-14.84,4.88-19.12-3.58Z"/>
    <path class="i" d="m64.18,31.75c-3.42-6.77,3.99-13.54,9.69-12.33,10.68,2.27,12.58,11.03,9.43,15.91-3.15,4.88-14.84,4.88-19.12-3.58Z"/>
    <path class="i" d="m121.85,12.8c-3.32-6.57,3.87-13.12,9.39-11.95,10.35,2.2,12.19,10.69,9.15,15.42-3.05,4.73-14.39,4.73-18.54-3.47Z"/>
    <path class="i" d="m130.65,14.62c3.32-6.57-3.87-13.12-9.39-11.95-10.35,2.2-12.19,10.69-9.14,15.42,3.05,4.73,14.39,4.73,18.54-3.47Z"/>
    <path class="i" d="m81.52,14.01c-3.32-6.57,3.87-13.12,9.39-11.95,10.35,2.2,12.19,10.69,9.15,15.42-3.05,4.73-14.39,4.73-18.54-3.47Z"/>
    <path class="i" d="m89.11,13.03c2.92-5.63-2.85-10.98-7.45-9.84-8.63,2.13-10.38,9.36-7.98,13.27,2.4,3.91,11.78,3.62,15.43-3.43Z"/>
    <path class="i" d="m102.37,30.03c-7.59-.4-9.78-10.19-5.9-14.52,7.28-8.12,15.84-5.41,18.52-.26,2.68,5.15-3.13,15.28-12.62,14.78Z"/>
    <path class="i" d="m70.18,72.42c-3.5-8.71,6.34-16.26,13.23-14.17,12.92,3.92,14.34,14.91,9.95,20.59-4.39,5.68-18.81,4.46-23.18-6.42Z"/>
    <path class="i" d="m169.42,62.61c-1.66-9.23,9.51-14.64,15.84-11.2,11.86,6.45,11.02,17.5,5.57,22.18-5.45,4.68-19.32.57-21.4-10.98Z"/>
    <path class="i" d="m159.08,38.26c-2.63-9.01,7.91-15.56,14.56-12.81,12.47,5.16,12.81,16.24,7.88,21.47-4.93,5.22-19.15,2.6-22.44-8.66Z"/>
    <path class="i" d="m151.36,16.87c9.09,2.39,9.29,14.79,3.5,19.06-10.86,8.01-20.55,2.58-22.49-4.32-1.95-6.91,7.64-17.72,19-14.73Z"/>
    <path class="f" d="m17.54,102.54h160.54c10.17,0,17.76,9.36,15.65,19.3l-27.02,128c-1.56,7.4-8.09,12.7-15.65,12.7H44.56c-7.56,0-14.09-5.3-15.65-12.7L1.88,121.84c-2.1-9.95,5.49-19.3,15.65-19.3Z"/>
  </g>
  <g id="b" data-name="Layer 4">
    <path class="g" d="m56.39,202.08c6.47-1.94,7.47-8.88,7.17-12.1.59-6.26-2.76-9.5-4.23-10.8-.92-.74-3.16-2.5-9.92-2.79-6.76-.3-10.29,2.73-11.21,4.28-1.1,1.49-3.09,5.96-2.21,11.92.88,5.96,5.02,8.81,6.98,9.5,1.78.81,6.95,1.94,13.42,0Z"/>
    <path class="g" d="m138.36,202.08c-6.47-1.94-7.47-8.88-7.17-12.1-.59-6.26,2.76-9.5,4.23-10.8.92-.74,3.16-2.5,9.92-2.79s10.29,2.73,11.21,4.28c1.1,1.49,3.09,5.96,2.21,11.92-.88,5.96-5.02,8.81-6.98,9.5-1.78.81-6.95,1.94-13.42,0Z"/>
    <path class="e" d="m150.94,167.53c0,8.14-6.59,14.73-14.73,14.73s-14.73-6.6-14.73-14.73,6.59-14.73,14.73-14.73,14.73,6.6,14.73,14.73Z"/>
    <path class="c" d="m137.69,165.87c0,3.15-2.55,5.71-5.71,5.71s-5.71-2.56-5.71-5.71,2.56-5.71,5.71-5.71,5.71,2.56,5.71,5.71Z"/>
    <path class="c" d="m144.32,161.63c0,1.63-1.32,2.95-2.95,2.95s-2.95-1.32-2.95-2.95,1.32-2.95,2.95-2.95,2.95,1.32,2.95,2.95Z"/>
    <path class="c" d="m142.84,167.89c0,1.02-.82,1.84-1.84,1.84s-1.84-.82-1.84-1.84.82-1.84,1.84-1.84,1.84.82,1.84,1.84Z"/>
    <path class="e" d="m73.26,167.53c0,8.14-6.59,14.73-14.73,14.73s-14.73-6.6-14.73-14.73,6.59-14.73,14.73-14.73,14.73,6.6,14.73,14.73Z"/>
    <path class="c" d="m60,165.87c0,3.15-2.56,5.71-5.71,5.71s-5.71-2.56-5.71-5.71,2.56-5.71,5.71-5.71,5.71,2.56,5.71,5.71Z"/>
    <path class="c" d="m66.63,161.63c0,1.63-1.32,2.95-2.95,2.95s-2.95-1.32-2.95-2.95,1.32-2.95,2.95-2.95,2.95,1.32,2.95,2.95Z"/>
    <path class="c" d="m65.16,167.89c0,1.02-.82,1.84-1.84,1.84s-1.84-.82-1.84-1.84.82-1.84,1.84-1.84,1.84.82,1.84,1.84Z"/>
    <path class="k" d="m86.07,189.03c-2.96,2.47-5.25,5.48-6.43,7.47-.38.64-1.2.84-1.84.47-.64-.38-.84-1.2-.47-1.84,1.32-2.21,3.79-5.46,7.01-8.16,3.21-2.68,7.31-4.94,11.85-4.82,4.48.12,8.77,2.38,12.23,5.01,3.48,2.64,6.29,5.76,7.83,7.86.44.6.31,1.43-.29,1.87-.6.44-1.43.31-1.87-.29-1.41-1.92-4.04-4.85-7.29-7.31-3.27-2.48-7.02-4.37-10.68-4.46-3.61-.09-7.09,1.71-10.06,4.2Z"/>
  </g>
</svg>